<?xml version="1.0" encoding="utf-8"?>
<!-- Generator: Adobe Illustrator 26.5.0, SVG Export Plug-In . SVG Version: 6.00 Build 0)  -->
<svg version="1.1" id="Layer_1" xmlns="http://www.w3.org/2000/svg" xmlns:xlink="http://www.w3.org/1999/xlink" x="0px" y="0px"
	 viewBox="0 0 949.35 151.95" style="enable-background:new 0 0 949.35 151.95;" xml:space="preserve">
<style type="text/css">
	.st0{fill:#FFFFFF;}
	.st1{fill:#46070A;}
</style>
<g>
	<g>
		<path class="st0" d="M94.25,18.12c-4.8,0-7.2,1.23-7.2,3.68v38.95c0,2.45,2.4,3.68,7.2,3.68v6.56H64.42v-6.56
			c4.75,0,7.12-1.23,7.12-3.68V22.6L56.66,70.98H43.63L28.75,22.6v38.15c0,2.45,2.37,3.68,7.12,3.68v6.56H13.16v-6.56
			c4.74,0,7.12-1.23,7.12-3.68V21.8c0-2.45-2.37-3.68-7.12-3.68v-6.56h29.19l12.08,41.43L66.5,11.56h27.75V18.12z"/>
		<path class="st0" d="M121.23,33.98c-3.32,0-4.98,0.86-4.98,2.58v27.26c0,1.72,1.66,2.58,4.98,2.58v4.59H99.84v-4.59
			c3.36,0,5.04-0.86,5.04-2.58V36.55c0-1.72-1.68-2.58-5.04-2.58v-4.59h21.38V33.98z"/>
		<path class="st0" d="M165.34,43.05l-5.65,0.45c-0.56-2.91-1.69-5.18-3.39-6.8s-4-2.44-6.91-2.44c-4.22,0-7.21,1.39-8.99,4.17
			c-1.77,2.78-2.66,6.71-2.66,11.78c0,2.65,0.27,4.93,0.81,6.83s1.29,3.46,2.24,4.67s2.07,2.11,3.36,2.69
			c1.29,0.58,2.66,0.87,4.11,0.87c3.51,0,6.22-0.71,8.15-2.13c1.92-1.42,3.37-3.62,4.34-6.61l5.09,1.29
			c-0.49,1.87-1.17,3.64-2.07,5.32c-0.9,1.68-2.07,3.17-3.53,4.48c-1.46,1.31-3.25,2.34-5.38,3.11c-2.13,0.76-4.65,1.15-7.56,1.15
			c-2.95,0-5.72-0.43-8.31-1.29c-2.59-0.86-4.85-2.16-6.77-3.91c-1.92-1.75-3.44-3.96-4.56-6.63c-1.12-2.67-1.68-5.81-1.68-9.42
			c0-3.76,0.55-7.03,1.65-9.81c1.1-2.78,2.58-5.07,4.45-6.88c1.87-1.81,4.02-3.16,6.47-4.05c2.44-0.89,5.03-1.34,7.75-1.34
			c2.84,0,5.29,0.34,7.36,1.03s3.7,1.56,4.9,2.63l1.29-2.82h5.49V43.05z"/>
		<path class="st0" d="M217.46,33.98c-3.36,0-5.04,0.86-5.04,2.58v27.26c0,1.72,1.68,2.58,5.04,2.58v4.59h-20.77v-4.59
			c2.87,0,4.31-0.86,4.31-2.58V51.84h-14.67v11.98c0,1.72,1.46,2.58,4.37,2.58v4.59h-20.71v-4.59c3.32,0,4.98-0.86,4.98-2.58V36.55
			c0-1.72-1.66-2.58-4.98-2.58v-4.59h20.71v4.59c-2.91,0-4.37,0.86-4.37,2.58v9.91H201v-9.91c0-1.72-1.44-2.58-4.31-2.58v-4.59
			h20.77V33.98z"/>
		<path class="st0" d="M262.13,64.71c0.37,1.12,1.88,1.68,4.53,1.68v4.59h-22.45v-4.59h4.31c1.08,0,1.62-0.34,1.62-1.01
			c0-0.15-0.06-0.37-0.17-0.67l-1.57-4.48H233.3l-1.4,4.03c-0.11,0.3-0.17,0.54-0.17,0.73c0,0.93,0.84,1.4,2.52,1.4h3.19v4.59H221.6
			l-0.06-4.59c1.6,0,2.77-0.14,3.5-0.42c0.73-0.28,1.18-0.68,1.37-1.2l12.54-35.38h11.31L262.13,64.71z M234.93,55.31h12.04
			l-5.82-18.25L234.93,55.31z"/>
		<path class="st0" d="M309.55,41.98l-5.6,0.28c-0.22-4.78-2.31-7.17-6.27-7.17h-10.52v11.7h4.25c1.75,0,2.8-2.09,3.13-6.27h4.93
			l-0.84,17.47h-4.81c-0.41-4.33-1.34-6.49-2.8-6.49h-3.86v13.77h8.51c5.9,0,9.07-3.55,9.52-10.64l5.71,0.39l-1.34,15.96h-38.74
			v-4.59c3.32,0,4.98-0.86,4.98-2.58V36.55c0-1.72-1.66-2.58-4.98-2.58v-4.59h38.74V41.98z"/>
		<path class="st0" d="M338.1,33.98c-4.14,0-6.21,0.86-6.21,2.58v28.72h9.57c2.39,0,4.26-0.79,5.63-2.38
			c1.36-1.59,2.21-4.34,2.55-8.26l4.98,0.39l-1.34,15.96h-37.73v-4.59c3.32,0,4.98-0.86,4.98-2.58V36.55c0-1.72-1.66-2.58-4.98-2.58
			v-4.59h22.56V33.98z"/>
		<path class="st0" d="M437.78,18.12c-4.8,0-7.2,1.23-7.2,3.68v29.59c0,3.47-0.56,6.49-1.68,9.08c-1.12,2.59-2.71,4.76-4.76,6.52
			c-2.05,1.76-4.51,3.08-7.36,3.96c-2.85,0.88-6.01,1.32-9.48,1.32c-2.99,0-5.71-0.37-8.16-1.12c-2.45-0.75-4.57-1.81-6.36-3.2
			c-1.79-1.39-3.17-3.11-4.16-5.16c-0.99-2.05-1.48-4.36-1.48-6.92c0-2.72,0.76-4.88,2.28-6.48c1.52-1.6,3.56-2.4,6.12-2.4
			c2.29,0,4.07,0.59,5.32,1.76c1.25,1.17,1.88,2.77,1.88,4.8c0,1.71-0.55,3.17-1.64,4.4c-1.09,1.23-2.57,1.92-4.44,2.08
			c0.37,1.44,1.35,2.57,2.92,3.4c1.57,0.83,3.29,1.24,5.16,1.24c1.6,0,3-0.25,4.2-0.76c1.2-0.51,2.19-1.37,2.96-2.6
			c0.77-1.23,1.36-2.84,1.76-4.84c0.4-2,0.6-4.52,0.6-7.56V21.8c0-2.45-2.37-3.68-7.12-3.68v-6.56h30.63V18.12z"/>
		<path class="st0" d="M482.68,64.71c0.37,1.12,1.88,1.68,4.53,1.68v4.59h-22.45v-4.59h4.31c1.08,0,1.62-0.34,1.62-1.01
			c0-0.15-0.06-0.37-0.17-0.67l-1.57-4.48h-15.12l-1.4,4.03c-0.11,0.3-0.17,0.54-0.17,0.73c0,0.93,0.84,1.4,2.52,1.4h3.19v4.59
			h-15.84l-0.06-4.59c1.6,0,2.77-0.14,3.5-0.42c0.73-0.28,1.18-0.68,1.37-1.2l12.54-35.38h11.31L482.68,64.71z M455.47,55.31h12.04
			l-5.82-18.25L455.47,55.31z"/>
		<path class="st0" d="M548.12,33.98c-3.36,0-5.04,0.86-5.04,2.58v27.26c0,1.72,1.68,2.58,5.04,2.58v4.59h-20.88v-4.59
			c3.32,0,4.98-0.86,4.98-2.58v-26.7l-10.41,33.87h-9.12l-10.41-33.87v26.7c0,1.72,1.66,2.58,4.98,2.58v4.59h-15.9v-4.59
			c3.32,0,4.98-0.86,4.98-2.58V36.55c0-1.72-1.66-2.58-4.98-2.58v-4.59h20.43l8.45,29l8.45-29h19.43V33.98z"/>
		<path class="st0" d="M591,41.98l-5.6,0.28c-0.22-4.78-2.31-7.17-6.27-7.17h-10.52v11.7h4.25c1.75,0,2.8-2.09,3.13-6.27h4.93
			l-0.84,17.47h-4.81c-0.41-4.33-1.34-6.49-2.8-6.49h-3.86v13.77h8.51c5.9,0,9.07-3.55,9.52-10.64l5.71,0.39L591,70.98h-38.74v-4.59
			c3.32,0,4.98-0.86,4.98-2.58V36.55c0-1.72-1.66-2.58-4.98-2.58v-4.59H591V41.98z"/>
		<path class="st0" d="M631.59,43.38l-5.04,0.5c-0.22-1.68-0.71-3.13-1.46-4.34c-0.75-1.21-1.69-2.19-2.83-2.94
			c-1.14-0.75-2.45-1.3-3.92-1.65c-1.47-0.35-3.07-0.53-4.79-0.53c-0.75,0-1.57,0.05-2.46,0.14c-0.9,0.09-1.74,0.3-2.52,0.62
			c-0.78,0.32-1.44,0.78-1.96,1.4c-0.52,0.62-0.78,1.45-0.78,2.49c0,0.9,0.29,1.63,0.87,2.21c0.58,0.58,1.36,1.06,2.35,1.46
			c0.99,0.39,2.14,0.72,3.44,0.98c1.31,0.26,2.68,0.51,4.12,0.76c1.44,0.24,2.91,0.53,4.42,0.87c1.51,0.34,2.98,0.75,4.39,1.23
			c2.69,0.97,4.78,2.39,6.27,4.25c1.49,1.87,2.24,4.4,2.24,7.61c0,2.2-0.39,4.14-1.18,5.82c-0.78,1.68-1.88,3.08-3.3,4.2
			c-1.42,1.12-3.11,1.97-5.07,2.55s-4.1,0.87-6.41,0.87c-2.76,0-5.01-0.26-6.75-0.78c-1.74-0.52-3.22-1.12-4.45-1.79
			c-0.86-0.48-1.62-0.73-2.29-0.73c-0.52,0-0.99,0.24-1.4,0.73c-0.41,0.49-0.75,1.05-1.01,1.68h-5.09V56.2l5.04-0.34
			c0.3,3.28,1.7,5.78,4.2,7.47c2.5,1.7,5.84,2.55,10.02,2.55c1.16,0,2.27-0.07,3.33-0.22c1.06-0.15,2-0.43,2.8-0.84
			c0.8-0.41,1.44-0.99,1.9-1.74c0.47-0.75,0.7-1.72,0.7-2.91c0-1.27-0.5-2.23-1.51-2.88c-1.01-0.65-2.3-1.18-3.89-1.57
			c-1.59-0.39-3.37-0.72-5.35-0.98c-1.98-0.26-3.94-0.65-5.88-1.17c-3.88-1.01-6.73-2.53-8.54-4.56c-1.81-2.03-2.71-4.94-2.71-8.71
			c0-1.57,0.26-3.06,0.78-4.48c0.52-1.42,1.36-2.67,2.52-3.75c1.16-1.08,2.63-1.95,4.42-2.6c1.79-0.65,3.96-0.98,6.49-0.98
			c2.69,0,4.89,0.24,6.61,0.73c1.72,0.49,3.15,1.03,4.31,1.62c0.41,0.22,0.77,0.39,1.09,0.5c0.32,0.11,0.64,0.17,0.98,0.17
			c0.78,0,1.37-0.18,1.76-0.53c0.39-0.35,0.79-0.89,1.2-1.6h4.31V43.38z"/>
		<path class="st0" d="M747.66,18.12c-4.8,0-7.2,1.23-7.2,3.68v38.95c0,2.45,2.4,3.68,7.2,3.68v6.56h-29.83v-6.56
			c4.75,0,7.12-1.23,7.12-3.68V22.6l-14.88,48.38h-13.04L682.16,22.6v38.15c0,2.45,2.37,3.68,7.12,3.68v6.56h-22.71v-6.56
			c4.75,0,7.12-1.23,7.12-3.68V21.8c0-2.45-2.37-3.68-7.12-3.68v-6.56h29.19l12.08,41.43l12.08-41.43h27.75V18.12z"/>
		<path class="st0" d="M774.29,28.49c3.02,0,5.81,0.36,8.37,1.09c2.56,0.73,4.76,1.93,6.61,3.61c1.85,1.68,3.28,3.91,4.31,6.69
			c1.03,2.78,1.54,6.21,1.54,10.27c0,3.36-0.44,6.38-1.32,9.07c-0.88,2.69-2.21,4.96-4,6.83c-1.79,1.87-4.04,3.3-6.75,4.31
			c-2.71,1.01-5.91,1.51-9.6,1.51c-3.02,0-5.8-0.35-8.34-1.06s-4.73-1.88-6.58-3.5c-1.85-1.62-3.29-3.77-4.31-6.44
			c-1.03-2.67-1.54-5.94-1.54-9.83c0-3.51,0.4-6.66,1.2-9.46c0.8-2.8,2.07-5.17,3.81-7.11c1.74-1.94,3.96-3.42,6.69-4.45
			C767.11,29.01,770.41,28.49,774.29,28.49z M774.57,34.43c-3.58,0-6.24,1.11-7.98,3.33c-1.74,2.22-2.6,5.79-2.6,10.72
			c0,3.58,0.22,6.5,0.67,8.76c0.45,2.26,1.08,4.02,1.9,5.29c0.82,1.27,1.82,2.14,3,2.6c1.18,0.47,2.47,0.7,3.89,0.7
			c1.87,0,3.46-0.27,4.79-0.81c1.32-0.54,2.41-1.42,3.25-2.63c0.84-1.21,1.46-2.79,1.85-4.73c0.39-1.94,0.59-4.31,0.59-7.11
			c0-3.25-0.22-5.91-0.67-7.98s-1.08-3.71-1.9-4.93c-0.82-1.21-1.81-2.05-2.97-2.52C777.22,34.66,775.95,34.43,774.57,34.43z"/>
		<path class="st0" d="M820.87,28.49c3.02,0,5.81,0.36,8.37,1.09c2.56,0.73,4.76,1.93,6.61,3.61c1.85,1.68,3.28,3.91,4.31,6.69
			c1.03,2.78,1.54,6.21,1.54,10.27c0,3.36-0.44,6.38-1.32,9.07c-0.88,2.69-2.21,4.96-4,6.83c-1.79,1.87-4.04,3.3-6.75,4.31
			c-2.71,1.01-5.91,1.51-9.6,1.51c-3.02,0-5.8-0.35-8.34-1.06s-4.73-1.88-6.58-3.5c-1.85-1.62-3.29-3.77-4.31-6.44
			c-1.03-2.67-1.54-5.94-1.54-9.83c0-3.51,0.4-6.66,1.2-9.46c0.8-2.8,2.07-5.17,3.81-7.11c1.74-1.94,3.96-3.42,6.69-4.45
			C813.68,29.01,816.99,28.49,820.87,28.49z M821.15,34.43c-3.58,0-6.24,1.11-7.98,3.33c-1.74,2.22-2.6,5.79-2.6,10.72
			c0,3.58,0.22,6.5,0.67,8.76c0.45,2.26,1.08,4.02,1.9,5.29c0.82,1.27,1.82,2.14,3,2.6c1.18,0.47,2.47,0.7,3.89,0.7
			c1.87,0,3.46-0.27,4.79-0.81c1.32-0.54,2.41-1.42,3.25-2.63c0.84-1.21,1.46-2.79,1.85-4.73c0.39-1.94,0.59-4.31,0.59-7.11
			c0-3.25-0.22-5.91-0.67-7.98s-1.08-3.71-1.9-4.93c-0.82-1.21-1.81-2.05-2.97-2.52C823.8,34.66,822.53,34.43,821.15,34.43z"/>
		<path class="st0" d="M892.58,63.71c0,1.08-0.17,2.1-0.5,3.04s-0.85,1.76-1.54,2.44c-0.69,0.68-1.59,1.22-2.69,1.61
			c-1.1,0.39-2.42,0.58-3.95,0.58c-1.79,0-3.31-0.22-4.56-0.67c-1.25-0.45-2.27-1.06-3.05-1.85c-0.78-0.78-1.36-1.7-1.74-2.74
			S874,63.95,874,62.75v-3.64c0-1.46-0.08-2.67-0.25-3.64s-0.46-1.74-0.87-2.32c-0.41-0.58-0.95-1-1.62-1.26
			c-0.67-0.26-1.53-0.39-2.58-0.39h-6.49v12.32c0,1.72,2.07,2.58,6.21,2.58v4.59h-22.56v-4.53c3.32,0,4.98-0.86,4.98-2.58V36.56
			c0-1.72-1.66-2.58-4.98-2.58v-4.59h26.59c1.83,0,3.62,0.12,5.37,0.36c1.75,0.24,3.31,0.74,4.67,1.48c1.36,0.75,2.45,1.8,3.27,3.16
			c0.82,1.36,1.23,3.16,1.23,5.4c0,1.46-0.22,2.73-0.67,3.83c-0.45,1.1-1.04,2.04-1.76,2.83c-0.73,0.78-1.56,1.42-2.49,1.9
			c-0.93,0.49-1.9,0.84-2.91,1.06c1.01,0.3,1.89,0.7,2.66,1.21c0.76,0.5,1.42,1.15,1.96,1.94c0.54,0.79,0.95,1.75,1.23,2.89
			c0.28,1.14,0.42,2.48,0.42,4.02v4.49c0,0.82,0.17,1.43,0.5,1.83s0.76,0.59,1.29,0.59c0.56,0,1.01-0.2,1.34-0.59
			c0.34-0.39,0.5-1,0.5-1.82V61.3h3.53V63.71z M862.18,35.38V46.8h7.17c2.09,0,3.61-0.46,4.56-1.37c0.95-0.91,1.43-2.53,1.43-4.84
			c0-1.72-0.47-3.01-1.4-3.89c-0.93-0.88-2.46-1.32-4.59-1.32H862.18z"/>
		<path class="st0" d="M934.85,41.98l-5.6,0.28c-0.22-4.78-2.31-7.17-6.27-7.17h-10.52v11.7h4.25c1.75,0,2.8-2.09,3.13-6.27h4.93
			l-0.84,17.47h-4.81c-0.41-4.33-1.34-6.49-2.8-6.49h-3.86v13.77h8.51c5.9,0,9.07-3.55,9.52-10.64l5.71,0.39l-1.34,15.96h-38.74
			v-4.59c3.32,0,4.98-0.86,4.98-2.58V36.55c0-1.72-1.66-2.58-4.98-2.58v-4.59h38.74V41.98z"/>
	</g>
	<g>
		<path class="st0" d="M201.59,117.81l-4.42,0.35c-0.44-2.28-1.32-4.05-2.65-5.32c-1.33-1.27-3.13-1.9-5.41-1.9
			c-3.3,0-5.64,1.09-7.02,3.26c-1.39,2.17-2.08,5.25-2.08,9.21c0,2.07,0.21,3.85,0.63,5.34s1.01,2.71,1.75,3.65s1.62,1.65,2.63,2.1
			c1.01,0.45,2.08,0.68,3.22,0.68c2.74,0,4.86-0.55,6.37-1.66c1.5-1.11,2.63-2.83,3.39-5.16l3.98,1.01
			c-0.38,1.46-0.92,2.84-1.62,4.16c-0.7,1.31-1.62,2.48-2.76,3.5c-1.14,1.02-2.54,1.83-4.2,2.43s-3.63,0.9-5.91,0.9
			c-2.3,0-4.47-0.33-6.5-1c-2.03-0.67-3.79-1.69-5.29-3.06c-1.5-1.37-2.69-3.1-3.57-5.18c-0.88-2.08-1.31-4.54-1.31-7.37
			c0-2.94,0.43-5.5,1.29-7.67c0.86-2.17,2.02-3.96,3.48-5.38c1.46-1.41,3.14-2.47,5.05-3.17s3.93-1.05,6.06-1.05
			c2.22,0,4.13,0.27,5.75,0.8c1.62,0.54,2.9,1.22,3.83,2.06l1.01-2.2h4.29V117.81z"/>
		<path class="st0" d="M228.68,134.7c0,1.23,0.42,1.84,1.27,1.84c0.41,0,0.71-0.18,0.92-0.55c0.2-0.36,0.31-0.79,0.31-1.29v-2.23
			h2.54v1.4c0,1.23-0.18,2.22-0.55,3c-0.37,0.77-0.84,1.39-1.42,1.86c-0.58,0.47-1.24,0.79-1.97,0.96
			c-0.73,0.17-1.46,0.26-2.19,0.26c-1.81,0-3.14-0.42-4-1.25c-0.86-0.83-1.44-1.89-1.73-3.17c-0.26,0.64-0.64,1.25-1.14,1.84
			c-0.5,0.58-1.11,1.1-1.84,1.55c-0.73,0.45-1.58,0.81-2.54,1.07c-0.96,0.26-2.04,0.39-3.24,0.39c-2.71,0-4.69-0.56-5.93-1.68
			c-1.24-1.12-1.86-2.62-1.86-4.49c0-1.17,0.2-2.13,0.61-2.89c0.41-0.76,0.97-1.38,1.68-1.86s1.57-0.86,2.56-1.14
			c0.99-0.28,2.07-0.54,3.24-0.79s2.41-0.5,3.72-0.77c1.31-0.26,2.64-0.61,3.98-1.05v-1.36c0-0.61-0.09-1.21-0.26-1.79
			c-0.17-0.58-0.45-1.1-0.83-1.55c-0.38-0.45-0.87-0.82-1.47-1.09c-0.6-0.28-1.31-0.42-2.12-0.42c-1.22,0-2.25,0.11-3.06,0.33
			c-0.82,0.22-1.55,0.55-2.19,0.98c0.7,0.06,1.31,0.26,1.82,0.61c0.51,0.35,0.77,0.92,0.77,1.71c0,0.9-0.3,1.63-0.9,2.17
			c-0.6,0.54-1.48,0.81-2.65,0.81c-2.33,0-3.5-1.14-3.5-3.41c0-0.82,0.24-1.6,0.72-2.36c0.48-0.76,1.18-1.42,2.1-1.99
			c0.92-0.57,2.05-1.02,3.39-1.36c1.34-0.33,2.87-0.5,4.59-0.5c1.34,0,2.68,0.12,4.03,0.37s2.54,0.67,3.59,1.27
			c1.05,0.6,1.9,1.42,2.56,2.45c0.66,1.04,0.99,2.34,0.99,3.92V134.7z M221.15,127.56c-1.37,0.58-2.59,1.07-3.65,1.44
			s-1.97,0.76-2.71,1.14c-0.74,0.38-1.31,0.81-1.68,1.29c-0.38,0.48-0.57,1.13-0.57,1.95c0,0.76,0.26,1.39,0.79,1.88
			s1.36,0.74,2.49,0.74c1.23,0,2.3-0.32,3.22-0.96s1.63-1.44,2.12-2.41V127.56z"/>
		<path class="st0" d="M279.26,134.09c0,1.31,1.18,1.96,3.54,1.96v3.59h-13.92v-3.59c1.58,0,2.36-0.65,2.36-1.96v-6.89
			c0-1.83-0.2-3.17-0.59-4.01s-0.99-1.27-1.81-1.27c-1.07,0-2.05,0.46-2.94,1.38s-1.6,2.25-2.15,3.99v6.81
			c0,0.67,0.21,1.16,0.63,1.48c0.42,0.32,0.98,0.48,1.68,0.48v3.59H253.4v-3.59c1.58,0,2.36-0.65,2.36-1.96v-6.89
			c0-1.83-0.2-3.17-0.59-4.01c-0.39-0.84-1.01-1.27-1.85-1.27c-1.1,0-2.1,0.46-2.98,1.38s-1.59,2.25-2.11,3.99v6.81
			c0,1.31,0.79,1.96,2.36,1.96v3.59h-13.87v-3.59c2.33,0,3.5-0.65,3.5-1.96v-11.26c0-1.31-1.15-1.96-3.46-1.96v-3.49h11.47
			l-0.04,4.51c0.91-1.49,2.08-2.68,3.53-3.59s3.19-1.36,5.24-1.36c1.75,0,3.25,0.42,4.47,1.25c1.23,0.83,1.97,2.09,2.24,3.79
			c1.98-3.35,4.92-5.03,8.8-5.03c2.04,0,3.68,0.52,4.92,1.55c1.24,1.03,1.86,2.69,1.86,4.96V134.09z"/>
		<path class="st0" d="M294.27,128.57c0.06,2.66,0.51,4.65,1.36,5.97c0.85,1.33,2.19,1.99,4.03,1.99c1.4,0,2.66-0.37,3.79-1.12
			c1.12-0.74,1.87-1.87,2.25-3.39l3.68,0.39c-0.2,1.02-0.56,2.01-1.07,2.95c-0.51,0.95-1.19,1.79-2.04,2.54
			c-0.85,0.74-1.88,1.34-3.08,1.79c-1.21,0.45-2.6,0.68-4.18,0.68c-1.66,0-3.26-0.19-4.79-0.57c-1.53-0.38-2.88-1.03-4.05-1.95
			c-1.17-0.92-2.09-2.14-2.78-3.65c-0.69-1.52-1.03-3.43-1.03-5.73c0-1.84,0.27-3.49,0.81-4.97c0.54-1.47,1.33-2.74,2.38-3.79
			c1.05-1.05,2.33-1.85,3.85-2.41c1.52-0.55,3.27-0.83,5.25-0.83c3.91,0,6.8,0.96,8.69,2.89c1.88,1.93,2.82,4.99,2.82,9.19H294.27z
			 M303.46,125.55c0-0.73-0.09-1.46-0.26-2.19c-0.18-0.73-0.44-1.38-0.79-1.95c-0.35-0.57-0.8-1.03-1.36-1.38
			c-0.55-0.35-1.23-0.53-2.01-0.53c-1.31,0-2.38,0.48-3.19,1.44c-0.82,0.96-1.31,2.49-1.49,4.59H303.46z"/>
		<path class="st0" d="M325.3,121.44c0.76-1.66,1.72-2.87,2.89-3.63c1.17-0.76,2.45-1.14,3.85-1.14c0.7,0,1.41,0.12,2.14,0.35
			c0.73,0.23,1.38,0.57,1.95,1.02c0.57,0.45,1.04,1.02,1.4,1.71c0.36,0.69,0.55,1.51,0.55,2.44c0,1.4-0.35,2.54-1.05,3.41
			c-0.7,0.88-1.66,1.31-2.89,1.31c-1.14,0-2.01-0.29-2.63-0.88s-0.92-1.33-0.92-2.23c0-0.73,0.22-1.38,0.66-1.97
			c0.44-0.58,1.17-0.9,2.19-0.96c-0.26-0.41-0.6-0.71-1.01-0.9c-0.41-0.19-0.85-0.28-1.31-0.28c-0.58,0-1.17,0.17-1.75,0.5
			c-0.58,0.33-1.14,0.8-1.66,1.4c-0.52,0.6-1,1.31-1.42,2.14s-0.75,1.72-0.98,2.68v7.68c0,0.67,0.39,1.16,1.16,1.48
			s1.79,0.48,3.04,0.48v3.59h-15.93v-3.59c2.48,0,3.72-0.65,3.72-1.96v-11.26c0-1.31-1.22-1.96-3.68-1.96v-3.5h11.68V121.44z"/>
		<path class="st0" d="M364.86,134.7c0,1.23,0.42,1.84,1.27,1.84c0.41,0,0.71-0.18,0.92-0.55c0.2-0.36,0.31-0.79,0.31-1.29v-2.23
			h2.54v1.4c0,1.23-0.18,2.22-0.55,3c-0.37,0.77-0.84,1.39-1.42,1.86c-0.58,0.47-1.24,0.79-1.97,0.96
			c-0.73,0.17-1.46,0.26-2.19,0.26c-1.81,0-3.14-0.42-4-1.25c-0.86-0.83-1.44-1.89-1.73-3.17c-0.26,0.64-0.64,1.25-1.14,1.84
			c-0.5,0.58-1.11,1.1-1.84,1.55c-0.73,0.45-1.58,0.81-2.54,1.07c-0.96,0.26-2.04,0.39-3.24,0.39c-2.71,0-4.69-0.56-5.93-1.68
			c-1.24-1.12-1.86-2.62-1.86-4.49c0-1.17,0.2-2.13,0.61-2.89c0.41-0.76,0.97-1.38,1.68-1.86s1.57-0.86,2.56-1.14
			c0.99-0.28,2.07-0.54,3.24-0.79s2.41-0.5,3.72-0.77c1.31-0.26,2.64-0.61,3.98-1.05v-1.36c0-0.61-0.09-1.21-0.26-1.79
			c-0.17-0.58-0.45-1.1-0.83-1.55c-0.38-0.45-0.87-0.82-1.47-1.09c-0.6-0.28-1.31-0.42-2.12-0.42c-1.22,0-2.25,0.11-3.06,0.33
			c-0.82,0.22-1.55,0.55-2.19,0.98c0.7,0.06,1.31,0.26,1.82,0.61c0.51,0.35,0.77,0.92,0.77,1.71c0,0.9-0.3,1.63-0.9,2.17
			c-0.6,0.54-1.48,0.81-2.65,0.81c-2.33,0-3.5-1.14-3.5-3.41c0-0.82,0.24-1.6,0.72-2.36c0.48-0.76,1.18-1.42,2.1-1.99
			c0.92-0.57,2.05-1.02,3.39-1.36c1.34-0.33,2.87-0.5,4.59-0.5c1.34,0,2.68,0.12,4.03,0.37s2.54,0.67,3.59,1.27
			c1.05,0.6,1.9,1.42,2.56,2.45c0.66,1.04,0.99,2.34,0.99,3.92V134.7z M357.33,127.56c-1.37,0.58-2.59,1.07-3.65,1.44
			s-1.97,0.76-2.71,1.14c-0.74,0.38-1.31,0.81-1.68,1.29c-0.38,0.48-0.57,1.13-0.57,1.95c0,0.76,0.26,1.39,0.79,1.88
			s1.36,0.74,2.49,0.74c1.23,0,2.3-0.32,3.22-0.96s1.63-1.44,2.12-2.41V127.56z"/>
		<path class="st0" d="M399.78,129.1h-12.3v-3.98h12.3V129.1z"/>
		<path class="st0" d="M435.27,107.13c2.77,0,5.17,0.19,7.2,0.57c2.03,0.38,3.7,1.12,5.01,2.21c1.31,1.09,2.29,2.65,2.93,4.68
			c0.64,2.03,0.96,4.68,0.96,7.94c0,3.38-0.32,6.18-0.96,8.38c-0.64,2.2-1.62,3.95-2.93,5.25c-1.31,1.3-2.98,2.2-5.01,2.71
			c-2.03,0.51-4.43,0.77-7.2,0.77h-17.55v-3.59c2.6,0,3.89-0.67,3.89-2.01v-21.31c0-1.34-1.3-2.01-3.89-2.01v-3.59H435.27z
			 M430.5,111.59v23.59h5.47c1.28,0,2.33-0.25,3.15-0.74c0.82-0.5,1.45-1.25,1.9-2.28c0.45-1.02,0.77-2.32,0.94-3.89
			c0.18-1.58,0.26-3.44,0.26-5.6c0-2.16-0.09-3.95-0.26-5.38c-0.17-1.43-0.49-2.57-0.94-3.41c-0.45-0.85-1.09-1.44-1.9-1.77
			c-0.82-0.33-1.87-0.5-3.15-0.5H430.5z"/>
		<path class="st0" d="M466.64,121.44c0.76-1.66,1.72-2.87,2.89-3.63c1.17-0.76,2.45-1.14,3.85-1.14c0.7,0,1.42,0.12,2.14,0.35
			c0.73,0.23,1.38,0.57,1.95,1.02c0.57,0.45,1.04,1.02,1.4,1.71c0.36,0.69,0.55,1.51,0.55,2.44c0,1.4-0.35,2.54-1.05,3.41
			c-0.7,0.88-1.66,1.31-2.89,1.31c-1.14,0-2.01-0.29-2.62-0.88c-0.61-0.58-0.92-1.33-0.92-2.23c0-0.73,0.22-1.38,0.66-1.97
			c0.44-0.58,1.17-0.9,2.19-0.96c-0.26-0.41-0.6-0.71-1.01-0.9c-0.41-0.19-0.85-0.28-1.31-0.28c-0.58,0-1.17,0.17-1.75,0.5
			c-0.58,0.33-1.14,0.8-1.66,1.4c-0.53,0.6-1,1.31-1.42,2.14c-0.42,0.83-0.75,1.72-0.99,2.68v7.68c0,0.67,0.39,1.16,1.16,1.48
			c0.77,0.32,1.79,0.48,3.04,0.48v3.59h-15.93v-3.59c2.48,0,3.72-0.65,3.72-1.96v-11.26c0-1.31-1.23-1.96-3.68-1.96v-3.5h11.68
			V121.44z"/>
		<path class="st0" d="M507.82,128.4c0,3.94-1.09,6.92-3.28,8.95c-2.19,2.03-5.31,3.04-9.36,3.04c-1.63,0-3.19-0.17-4.66-0.53
			c-1.47-0.35-2.76-0.96-3.87-1.82c-1.11-0.86-1.99-2.03-2.65-3.5c-0.66-1.47-0.98-3.35-0.98-5.62c0-8.29,4.2-12.43,12.6-12.43
			c1.66,0,3.24,0.18,4.73,0.55c1.49,0.37,2.79,1,3.9,1.9c1.11,0.91,1.98,2.12,2.62,3.65S507.82,126.06,507.82,128.4z M495.53,120.39
			c-1.58,0-2.74,0.56-3.48,1.68c-0.74,1.12-1.12,3-1.12,5.62c0,1.81,0.09,3.29,0.26,4.44s0.44,2.06,0.79,2.71
			c0.35,0.66,0.79,1.1,1.33,1.33s1.19,0.35,1.95,0.35c1.69,0,2.87-0.61,3.54-1.84c0.67-1.22,1.01-3.25,1.01-6.08
			c0-1.66-0.1-3.03-0.29-4.09s-0.47-1.9-0.83-2.52c-0.37-0.61-0.81-1.04-1.33-1.27C496.84,120.51,496.23,120.39,495.53,120.39z"/>
		<path class="st0" d="M539.38,134.09c0,1.31,1.25,1.96,3.76,1.96v3.59h-14.27v-3.59c1.66,0,2.49-0.65,2.49-1.96v-6.89
			c0-1.83-0.25-3.17-0.74-4.01s-1.2-1.27-2.1-1.27c-1.22,0-2.36,0.48-3.41,1.44c-1.05,0.96-1.82,2.27-2.32,3.93v6.81
			c0,1.31,0.82,1.96,2.45,1.96v3.59h-14.18v-3.59c2.48,0,3.72-0.65,3.72-1.96v-11.26c0-1.31-1.23-1.96-3.68-1.96v-3.5h11.68
			l0.01,4.46c1.02-1.58,2.34-2.79,3.95-3.63c1.61-0.85,3.48-1.27,5.61-1.27c2.28,0,4.02,0.52,5.22,1.55c1.2,1.03,1.8,2.69,1.8,4.96
			V134.09z"/>
		<path class="st0" d="M554.56,128.57c0.06,2.66,0.51,4.65,1.36,5.97c0.85,1.33,2.19,1.99,4.03,1.99c1.4,0,2.66-0.37,3.79-1.12
			c1.12-0.74,1.87-1.87,2.25-3.39l3.68,0.39c-0.21,1.02-0.56,2.01-1.07,2.95c-0.51,0.95-1.19,1.79-2.04,2.54
			c-0.85,0.74-1.88,1.34-3.08,1.79c-1.21,0.45-2.6,0.68-4.18,0.68c-1.66,0-3.26-0.19-4.79-0.57c-1.53-0.38-2.88-1.03-4.05-1.95
			s-2.09-2.14-2.78-3.65c-0.69-1.52-1.03-3.43-1.03-5.73c0-1.84,0.27-3.49,0.81-4.97c0.54-1.47,1.33-2.74,2.38-3.79
			c1.05-1.05,2.33-1.85,3.85-2.41c1.52-0.55,3.27-0.83,5.25-0.83c3.91,0,6.8,0.96,8.69,2.89c1.88,1.93,2.82,4.99,2.82,9.19H554.56z
			 M563.75,125.55c0-0.73-0.09-1.46-0.26-2.19c-0.17-0.73-0.44-1.38-0.79-1.95c-0.35-0.57-0.8-1.03-1.36-1.38
			c-0.55-0.35-1.23-0.53-2.01-0.53c-1.31,0-2.38,0.48-3.19,1.44c-0.82,0.96-1.31,2.49-1.49,4.59H563.75z"/>
		<path class="st0" d="M600.73,129.1h-12.3v-3.98h12.3V129.1z"/>
		<path class="st0" d="M648.95,116.97l-4.38,0.22c-0.17-3.73-1.81-5.6-4.9-5.6h-8.23v9.15h3.33c1.37,0,2.19-1.63,2.45-4.9h3.85
			l-0.66,13.65h-3.76c-0.32-3.38-1.05-5.08-2.19-5.08h-3.02v10.76h6.65c4.61,0,7.09-2.77,7.44-8.31l4.46,0.31l-1.05,12.47h-30.28
			v-3.59c2.6,0,3.89-0.67,3.89-2.01v-21.31c0-1.34-1.3-2.01-3.89-2.01v-3.59h30.28V116.97z"/>
		<path class="st0" d="M679.01,134.13c0,1.31,1.27,1.97,3.81,1.97v3.54h-10.28l-0.31-3.63c-0.7,1.49-1.81,2.59-3.33,3.3
			c-1.52,0.71-3.24,1.07-5.16,1.07c-1.4,0-2.71-0.22-3.94-0.66c-1.22-0.44-2.28-1.14-3.17-2.1c-0.89-0.96-1.6-2.2-2.12-3.7
			c-0.52-1.5-0.79-3.33-0.79-5.49c0-2.19,0.28-4.04,0.85-5.56c0.57-1.52,1.35-2.75,2.34-3.7c0.99-0.95,2.15-1.63,3.48-2.06
			s2.76-0.63,4.31-0.63c1.31,0,2.52,0.16,3.61,0.48c1.09,0.32,1.99,0.82,2.69,1.49v-7.04c0-1.31-1.24-1.97-3.72-1.97v-3.5h11.73
			V134.13z M666.85,120.34c-1.78,0-3.08,0.64-3.89,1.93c-0.82,1.28-1.23,3.21-1.23,5.78c0,2.57,0.41,4.49,1.23,5.75
			c0.82,1.27,2.11,1.9,3.89,1.9c1.81,0,3.06-0.63,3.76-1.9c0.7-1.27,1.05-3.19,1.05-5.75c0-2.57-0.35-4.49-1.05-5.78
			C669.91,120.99,668.66,120.34,666.85,120.34z"/>
		<path class="st0" d="M697.92,134.09c-0.06,1.31,1.18,1.96,3.72,1.96v3.59h-15.45v-3.59c2.48,0,3.72-0.65,3.72-1.96v-11.21
			c0-1.34-1.24-2.01-3.72-2.01v-3.5h11.73V134.09z M698.31,110.28c0,0.61-0.12,1.19-0.35,1.73c-0.23,0.54-0.55,1.01-0.94,1.42
			c-0.39,0.41-0.86,0.73-1.4,0.96s-1.12,0.35-1.73,0.35c-0.61,0-1.18-0.12-1.71-0.35s-0.99-0.55-1.4-0.96
			c-0.41-0.41-0.73-0.88-0.96-1.42s-0.35-1.12-0.35-1.73c0-0.61,0.12-1.18,0.35-1.71s0.55-0.98,0.96-1.38
			c0.41-0.39,0.88-0.71,1.4-0.94s1.09-0.35,1.71-0.35c0.61,0,1.19,0.12,1.73,0.35s1.01,0.55,1.4,0.94c0.39,0.39,0.71,0.85,0.94,1.38
			C698.2,109.1,698.31,109.67,698.31,110.28z"/>
		<path class="st0" d="M716.78,117.37h5.73l-0.22,3.72c-0.82-0.17-1.68-0.3-2.58-0.37c-0.9-0.07-1.88-0.11-2.93-0.11v13.96
			c0,0.67,0.12,1.17,0.37,1.49c0.25,0.32,0.68,0.48,1.29,0.48c0.61,0,1.04-0.17,1.27-0.52c0.23-0.35,0.35-0.83,0.35-1.44v-2.1h2.58
			v1.36c0,0.93-0.11,1.77-0.33,2.52c-0.22,0.74-0.58,1.39-1.09,1.92c-0.51,0.54-1.18,0.96-2.01,1.25c-0.83,0.29-1.85,0.44-3.04,0.44
			c-2.71,0-4.62-0.58-5.73-1.73s-1.66-2.72-1.66-4.71v-12.91h-3.76v-2.67c0.79-0.06,1.57-0.18,2.34-0.35
			c0.77-0.17,1.46-0.48,2.06-0.92s1.08-1.05,1.44-1.84c0.36-0.79,0.55-1.81,0.55-3.06v-0.96l5.38-0.31V117.37z"/>
		<path class="st0" d="M750.78,128.4c0,3.94-1.09,6.92-3.28,8.95c-2.19,2.03-5.31,3.04-9.37,3.04c-1.63,0-3.19-0.17-4.66-0.53
			c-1.47-0.35-2.76-0.96-3.87-1.82c-1.11-0.86-1.99-2.03-2.65-3.5c-0.66-1.47-0.98-3.35-0.98-5.62c0-8.29,4.2-12.43,12.6-12.43
			c1.66,0,3.24,0.18,4.73,0.55c1.49,0.37,2.79,1,3.89,1.9c1.11,0.91,1.98,2.12,2.63,3.65S750.78,126.06,750.78,128.4z
			 M738.48,120.39c-1.58,0-2.74,0.56-3.48,1.68c-0.74,1.12-1.12,3-1.12,5.62c0,1.81,0.09,3.29,0.26,4.44
			c0.17,1.15,0.44,2.06,0.79,2.71c0.35,0.66,0.79,1.1,1.33,1.33c0.54,0.23,1.19,0.35,1.95,0.35c1.69,0,2.87-0.61,3.54-1.84
			c0.67-1.22,1.01-3.25,1.01-6.08c0-1.66-0.09-3.03-0.28-4.09s-0.47-1.9-0.83-2.52c-0.37-0.61-0.81-1.04-1.33-1.27
			C739.8,120.51,739.18,120.39,738.48,120.39z"/>
		<path class="st0" d="M765.75,121.44c0.76-1.66,1.72-2.87,2.89-3.63c1.17-0.76,2.45-1.14,3.85-1.14c0.7,0,1.42,0.12,2.14,0.35
			c0.73,0.23,1.38,0.57,1.95,1.02c0.57,0.45,1.04,1.02,1.4,1.71c0.36,0.69,0.55,1.51,0.55,2.44c0,1.4-0.35,2.54-1.05,3.41
			c-0.7,0.88-1.66,1.31-2.89,1.31c-1.14,0-2.01-0.29-2.63-0.88c-0.61-0.58-0.92-1.33-0.92-2.23c0-0.73,0.22-1.38,0.66-1.97
			c0.44-0.58,1.17-0.9,2.19-0.96c-0.26-0.41-0.6-0.71-1.01-0.9c-0.41-0.19-0.85-0.28-1.31-0.28c-0.58,0-1.17,0.17-1.75,0.5
			c-0.58,0.33-1.14,0.8-1.66,1.4c-0.53,0.6-1,1.31-1.42,2.14s-0.75,1.72-0.98,2.68v7.68c0,0.67,0.39,1.16,1.16,1.48
			c0.77,0.32,1.79,0.48,3.04,0.48v3.59h-15.93v-3.59c2.48,0,3.72-0.65,3.72-1.96v-11.26c0-1.31-1.23-1.96-3.68-1.96v-3.5h11.68
			V121.44z"/>
	</g>
	<g>
		<rect x="10.39" y="88.03" class="st1" width="928.57" height="3"/>
	</g>
</g>
</svg>
