<?xml version="1.0" encoding="utf-8"?>
<!-- Generator: Adobe Illustrator 28.0.0, SVG Export Plug-In . SVG Version: 6.00 Build 0)  -->
<svg version="1.1" xmlns="http://www.w3.org/2000/svg" xmlns:xlink="http://www.w3.org/1999/xlink" x="0px" y="0px"
	 viewBox="0 0 401.4 93.9" enable-background="new 0 0 401.4 93.9" xml:space="preserve">
<g id="Layer_2">
	<g>
		<g>
			<path fill="#FFFFFF" d="M63.3,5.1c-3.8,0-5.6,0.9-5.6,2.9v30.4c0,2,1.8,2.9,5.6,2.9v5.1H40v-5.1c3.7,0,5.6-0.9,5.6-2.9V8.6
				L34,46.4H23.7L12.1,8.6v29.7c0,2,1.9,2.9,5.6,2.9v5.1H0v-5.1c3.7,0,5.6-0.9,5.6-2.9V8c0-2-1.9-2.9-5.6-2.9V0h22.8l9.4,32.3
				L41.6,0h21.7V5.1z"/>
			<path fill="#FFFFFF" d="M84.3,17.5c-2.6,0-3.9,0.7-3.9,2v21.2c0,1.4,1.3,2,3.9,2v3.6H67.6v-3.6c2.7,0,4-0.7,4-2V19.5
				c0-1.4-1.3-2-4-2v-3.6h16.7V17.5z"/>
			<path fill="#FFFFFF" d="M124.2,17.5c-2.1,0-4.2,0.8-5.9,2.2l-6.2,5.1l10.2,15.8c1.1,1.6,2,2.3,3.9,2.3h1v3.6h-18.1v-3.6h2
				c1.1,0,1.5-0.4,1.5-1.1c0-0.3-0.1-0.7-0.4-1.2l-6.4-10.7l-5.1,4.3v6.6c0,1.4,1.3,2,3.9,2v3.6H88v-3.6c2.6,0,3.9-0.7,3.9-2V19.5
				c0-1.4-1.3-2-3.9-2v-3.6h16.6v3.6c-2.6,0-3.9,0.7-3.9,2v9.3l10.2-8.5c0.5-0.4,0.7-0.9,0.7-1.4c0-0.8-0.6-1.5-1.8-1.5h-1.2v-3.6
				h15.5V17.5z"/>
			<path fill="#FFFFFF" d="M160.4,23.8L156,24c-0.2-3.8-1.8-5.6-4.9-5.6h-8.2v9.1h3.4c1.4,0,2.2-1.6,2.4-4.9h3.8l-0.7,13.6h-3.8
				c-0.3-3.4-1-5.1-2.2-5.1h-3v10.7h6.7c4.6,0,7.1-2.7,7.4-8.3l4.5,0.3l-1.1,12.5h-30.2v-3.6c2.6,0,3.9-0.7,3.9-2V19.5
				c0-1.4-1.3-2-3.9-2v-3.6h30.2V23.8z"/>
			<path fill="#FFFFFF" d="M250.6,5.1c-3.8,0-5.6,0.9-5.6,2.9v30.4c0,2,1.8,2.9,5.6,2.9v5.1h-23.3v-5.1c3.7,0,5.6-0.9,5.6-2.9V8.6
				l-11.6,37.7H211L199.4,8.6v29.7c0,2,1.9,2.9,5.6,2.9v5.1h-17.7v-5.1c3.7,0,5.6-0.9,5.6-2.9V8c0-2-1.9-2.9-5.6-2.9V0h22.8
				l9.4,32.3L228.9,0h21.7V5.1z"/>
			<path fill="#FFFFFF" d="M287.6,30.1c0,10.5-5.4,17-16.9,17c-9.4,0-16.2-4.1-16.2-16.3c0-11,4.8-17.6,16.8-17.6
				C280.8,13.2,287.6,17.4,287.6,30.1z M263.3,28.8c0,11.3,3,13.6,7.4,13.6c5.8,0,8.2-3.2,8.2-11.9c0-10.1-3-12.6-7.3-12.6
				C266,17.8,263.3,21.1,263.3,28.8z"/>
			<path fill="#FFFFFF" d="M323.9,30.1c0,10.5-5.4,17-16.9,17c-9.4,0-16.2-4.1-16.2-16.3c0-11,4.8-17.6,16.8-17.6
				C317.2,13.2,323.9,17.4,323.9,30.1z M299.6,28.8c0,11.3,3,13.6,7.4,13.6c5.8,0,8.2-3.2,8.2-11.9c0-10.1-3-12.6-7.3-12.6
				C302.3,17.8,299.6,21.1,299.6,28.8z"/>
			<path fill="#FFFFFF" d="M363.7,40.6c0,3.4-2,6.1-6.8,6.1c-5.5,0-7.7-3-7.7-6.7v-2.9c0-4.5-0.9-5.9-4.2-5.9h-5.1v9.6
				c0,1.4,1.6,2,4.9,2v3.6h-17.6v-3.6c2.6,0,3.9-0.7,3.9-2V19.5c0-1.4-1.3-2-3.9-2v-3.6h20.7c5.7,0,11.4,1.1,11.4,8.1
				c0,4.5-3,6.8-6.1,7.5c3.1,0.9,4.9,3,4.9,7.8v3.5c0,1.3,0.6,1.9,1.4,1.9s1.4-0.6,1.4-1.9v-2.1h2.8V40.6z M339.9,18.6v8.9h5.6
				c3.3,0,4.7-1.2,4.7-4.9c0-2.7-1.4-4.1-4.7-4.1H339.9z"/>
			<path fill="#FFFFFF" d="M396.7,23.8l-4.4,0.2c-0.2-3.8-1.8-5.6-4.9-5.6h-8.2v9.1h3.4c1.4,0,2.2-1.6,2.4-4.9h3.8l-0.7,13.6h-3.8
				c-0.3-3.4-1-5.1-2.2-5.1h-3v10.7h6.7c4.6,0,7.1-2.7,7.4-8.3l4.5,0.3l-1.1,12.5h-30.2v-3.6c2.6,0,3.9-0.7,3.9-2V19.5
				c0-1.4-1.3-2-3.9-2v-3.6h30.2V23.8z"/>
		</g>
		<g>
			<path fill="#FFFFFF" d="M19.9,70.3l-1.4,0.3c-0.5-5.3-4.2-8-8.7-8c-4.8,0-6.5,1.8-6.5,4.4c0,7,17.7,1.4,17.7,12
				c0,5.5-3.8,7.7-9.8,7.7c-2.6,0-4.8-0.7-6.8-2.1c-0.3-0.2-0.6-0.4-0.9-0.4c-0.6,0-0.9,0.4-1.2,1l-0.4,1H0.4v-9.6l1.4-0.2
				c0.5,4.7,4,8.3,9.6,8.3c4.6,0,7-1.7,7-5c0-7.4-17.7-1-17.7-12.4c0-3.3,1.9-6.8,8.8-6.8c2.7,0,4.7,0.6,6.5,1.7
				c0.4,0.3,0.8,0.4,1.2,0.4c0.4,0,0.8-0.2,1.1-0.6l0.6-0.9h1V70.3z"/>
			<path fill="#FFFFFF" d="M26.7,77.2c0,5.1,1.9,8.3,5.7,8.3c2.9,0,5.4-1.2,6.3-4.6l1.3,0.5c-0.9,2.9-3,5.5-7.6,5.5
				c-4.2,0-8.8-1.9-8.8-9.2c0-5.5,3.3-9.2,9-9.2c5.2,0,8.1,3.2,8.1,8.7H26.7z M37.6,75.9c0-3.6-1.9-6-5.1-6c-2.9,0-5.4,1.7-5.7,6
				H37.6z"/>
			<path fill="#FFFFFF" d="M49.4,83.7c0,1.1,1,1.5,3,1.5v1.2h-9v-1.2c2,0,3-0.4,3-1.5V62.9c0-1-1-1.5-3-1.5v-1.1h6V83.7z"/>
			<path fill="#FFFFFF" d="M66.3,71.1c-2.8-0.3-4.6-0.4-5.3-0.4v12.9c0,1.1,1.5,1.5,4.5,1.5v1.2H55v-1.2c2,0,3-0.4,3-1.5V70.7h-3
				v-1.2c0.8-0.2,1.8-0.3,2.9-0.4v-4.3c0-3.6,2.5-4.8,5.6-4.8c3.1,0,5.6,1.4,5.6,3.7c0,1-0.5,2.2-2,2.2S65,64.9,65,64
				c0-1.1,0.8-1.7,1.8-1.8c-0.5-0.6-1.7-0.9-3.2-0.9C62.2,61.2,61,62,61,64v5.2h5.5L66.3,71.1z"/>
			<path fill="#FFFFFF" d="M78.9,77.8h-9.5v-2.2h9.5V77.8z"/>
			<path fill="#FFFFFF" d="M100.6,70.3l-1.4,0.3c-0.5-5.3-4.2-8-8.7-8c-4.8,0-6.5,1.8-6.5,4.4c0,7,17.7,1.4,17.7,12
				c0,5.5-3.8,7.7-9.8,7.7c-2.6,0-4.8-0.7-6.8-2.1c-0.3-0.2-0.6-0.4-0.9-0.4c-0.6,0-0.9,0.4-1.2,1l-0.4,1h-1.4v-9.6l1.4-0.2
				c0.5,4.7,4,8.3,9.6,8.3c4.6,0,7-1.7,7-5c0-7.4-17.7-1-17.7-12.4c0-3.3,1.9-6.8,8.8-6.8c2.7,0,4.7,0.6,6.5,1.7
				c0.4,0.3,0.8,0.4,1.2,0.4c0.4,0,0.8-0.2,1.1-0.6l0.6-0.9h1V70.3z"/>
			<path fill="#FFFFFF" d="M110.2,72.6c1.8-2,4.3-3.8,7.6-3.8c3.2,0,5,1.4,5,5v9.8c0,1.1,1,1.5,3,1.5v1.2h-8.7v-1.2
				c1.8,0,2.7-0.4,2.7-1.5V74c0-2.8-0.9-3.8-2.6-3.8c-2.6,0-5.7,2.3-7,4.8v8.6c0,1.1,0.9,1.5,2.6,1.5v1.2h-8.6v-1.2c2,0,3-0.4,3-1.5
				V62.9c0-1-1-1.5-2.9-1.5v-1.1h6V72.6z"/>
			<path fill="#FFFFFF" d="M146.6,77.7c0,5.6-3.3,9.2-9.2,9.2c-4.7,0-8.8-2.3-8.8-8.8c0-5.8,3-9.6,9.2-9.6
				C142.6,68.5,146.6,70.8,146.6,77.7z M131.7,77c0,6.7,2.3,8.5,5.7,8.5c4.5,0,6.1-3.3,6.1-7.6c0-6.3-2.4-8-5.7-8
				C133.6,69.9,131.7,72.9,131.7,77z"/>
			<path fill="#FFFFFF" d="M167.3,77.7c0,5.6-3.3,9.2-9.2,9.2c-4.7,0-8.8-2.3-8.8-8.8c0-5.8,3-9.6,9.2-9.6
				C163.3,68.5,167.3,70.8,167.3,77.7z M152.3,77c0,6.7,2.3,8.5,5.7,8.5c4.5,0,6.1-3.3,6.1-7.6c0-6.3-2.4-8-5.7-8
				C154.2,69.9,152.3,72.9,152.3,77z"/>
			<path fill="#FFFFFF" d="M175.8,69.1h4.6l-0.2,2c-1.3-0.3-2.7-0.4-4.4-0.4v12.8c0,1.1,0.5,1.5,1.7,1.5c1.1,0,1.5-0.7,1.5-1.5v-2.3
				h1.3v1.9c0,1.9-0.5,3.4-3.4,3.4c-2.7,0-4-1.5-4-4.1V70.7h-3v-1.2c2.6-0.2,4.2-0.9,4.2-4.7v-0.8l1.8-0.2V69.1z"/>
			<path fill="#FFFFFF" d="M188.9,83.7c0,1.1,1,1.5,3,1.5v1.2h-9v-1.2c2,0,3-0.4,3-1.5V71.8c0-1.1-1-1.6-3-1.6v-1.1h6V83.7z
				 M187.1,65.6c-1.3,0-2.4-1.1-2.4-2.4c0-1.3,1.1-2.4,2.4-2.4c1.3,0,2.4,1.1,2.4,2.4C189.4,64.5,188.4,65.6,187.1,65.6z"/>
			<path fill="#FFFFFF" d="M213.6,83.7c0,1.1,1,1.5,3,1.5v1.2H208v-1.2c1.7,0,2.6-0.4,2.6-1.5V74c0-2.8-1.1-3.8-2.8-3.8
				c-2.6,0-6,2.3-7.3,4.8v8.6c0,1.1,0.9,1.5,2.6,1.5v1.2h-8.6v-1.2c2,0,3-0.4,3-1.5V71.8c0-1.1-1-1.6-3-1.6v-1.1h6v3.4
				c1.8-2,4.5-3.8,7.8-3.8c3.2,0,5.3,1.4,5.3,5V83.7z"/>
			<path fill="#FFFFFF" d="M223.1,86.6c-1.1,0.2-1.5,1.3-1.5,2.3c0,2,2.6,3.8,6.4,3.8c4.3,0,6.8-1.6,6.8-4.3c0-1.9-1.2-3.1-5.7-3.5
				c-6.9-0.7-8.8-1.1-8.8-3.1c0-1.1,0.9-2,1.8-2.4c-1.3-0.7-2.2-2.1-2.2-4.2c0-4.2,2.9-6,7.8-6c2.7,0,4.4,0.4,5.7,1.3
				c0.9-1.1,2.2-1.6,3.6-1.6c1.4,0,3.9,1,3.9,3.9c0,1.6-0.8,2.4-2,2.4c-1.3,0-2-0.9-2-1.8c0-1.1,0.8-1.8,2.2-1.8
				c-0.3-0.8-1.6-1.3-2.7-1.3c-0.8,0-1.5,0.4-2.2,1c1.1,1,1.6,2,1.6,3.8c0,4.1-3.7,5.9-8.2,5.9c-1.9,0-3.3-0.2-4.4-0.6
				c-0.5,0.1-0.8,0.5-0.8,0.9c0,1,0.8,1.4,7,2c6.9,0.7,8.1,2.6,8.1,5c0,3.5-3.3,6-9.8,6c-5.6,0-9.3-1.2-9.3-4.6
				c0-2.5,2.1-3.7,4.3-3.7L223.1,86.6z M227.7,70.5c-3.5,0-5.2,1.5-5.2,4.4c0,3.1,2,4.4,5.2,4.4c3.3,0,5.3-1.5,5.3-4.5
				C233,71.7,230.7,70.5,227.7,70.5z"/>
			<path fill="#FFFFFF" d="M267.7,61.2c7.9,0,12.5,2,12.5,11.9c0,9.9-4.5,13.2-12.5,13.2h-12.8v-1.2c2,0,3-0.5,3-1.5V64
				c0-1.1-1-1.5-3-1.5v-1.2H267.7z M261.4,63.1v21.4h6.9c6.1,0,8.3-4.6,8.3-11.3s-2.2-10.1-8.3-10.1H261.4z"/>
			<path fill="#FFFFFF" d="M288.9,83.7c0,1.1,1,1.5,3,1.5v1.2h-9v-1.2c2,0,3-0.4,3-1.5V71.8c0-1.1-1-1.6-3-1.6v-1.1h6V83.7z
				 M287.1,65.6c-1.3,0-2.4-1.1-2.4-2.4c0-1.3,1.1-2.4,2.4-2.4c1.3,0,2.4,1.1,2.4,2.4C289.4,64.5,288.4,65.6,287.1,65.6z"/>
			<path fill="#FFFFFF" d="M300.5,72.4c1.4-2.5,3.6-3.6,5.6-3.6c1.8,0,4.2,1.1,4.2,4c0,1.4-0.8,2.2-2.2,2.2c-1.3,0-2-0.9-2-1.8
				c0-1.1,0.9-1.8,2.3-1.8c-0.3-0.8-1.4-1.2-2.5-1.2c-1.6,0-3.8,1-5.4,4.9v8.5c0,1.1,1.1,1.5,3.4,1.5v1.2h-9.4v-1.2c2,0,3-0.4,3-1.5
				V71.8c0-1.1-1-1.6-3-1.6v-1.1h6V72.4z"/>
			<path fill="#FFFFFF" d="M316.2,77.2c0,5.1,1.9,8.3,5.7,8.3c2.9,0,5.4-1.2,6.3-4.6l1.3,0.5c-0.9,2.9-3,5.5-7.6,5.5
				c-4.2,0-8.8-1.9-8.8-9.2c0-5.5,3.3-9.2,9-9.2c5.2,0,8.1,3.2,8.1,8.7H316.2z M327,75.9c0-3.6-1.9-6-5.1-6c-2.9,0-5.4,1.7-5.7,6
				H327z"/>
			<path fill="#FFFFFF" d="M349.1,80.5c-0.5,3.2-2.6,6.5-7.5,6.5c-5,0-8.6-2.9-8.6-8.9c0-6.3,3.8-9.5,9-9.5c4,0,6.9,2.4,6.9,4.5
				c0,1.3-0.7,2.1-2,2.1c-1.3,0-2-0.9-2-2c0-0.9,0.8-1.6,1.7-1.7c-0.9-0.9-2-1.5-4.4-1.5c-4.1,0-6.1,2.5-6.1,7.6c0,5.7,2.9,8,5.9,8
				c2.7,0,5.2-1.4,5.8-5.3L349.1,80.5z"/>
			<path fill="#FFFFFF" d="M357.8,69.1h4.6l-0.2,2c-1.3-0.3-2.7-0.4-4.4-0.4v12.8c0,1.1,0.5,1.5,1.7,1.5c1.1,0,1.5-0.7,1.5-1.5v-2.3
				h1.3v1.9c0,1.9-0.5,3.4-3.4,3.4c-2.7,0-4-1.5-4-4.1V70.7h-3v-1.2c2.6-0.2,4.2-0.9,4.2-4.7v-0.8l1.8-0.2V69.1z"/>
			<path fill="#FFFFFF" d="M383.1,77.7c0,5.6-3.3,9.2-9.2,9.2c-4.7,0-8.8-2.3-8.8-8.8c0-5.8,3-9.6,9.2-9.6
				C379.1,68.5,383.1,70.8,383.1,77.7z M368.1,77c0,6.7,2.3,8.5,5.7,8.5c4.5,0,6.1-3.3,6.1-7.6c0-6.3-2.4-8-5.7-8
				C370.1,69.9,368.1,72.9,368.1,77z"/>
			<path fill="#FFFFFF" d="M391.6,72.4c1.4-2.5,3.6-3.6,5.6-3.6c1.8,0,4.2,1.1,4.2,4c0,1.4-0.8,2.2-2.2,2.2c-1.3,0-2-0.9-2-1.8
				c0-1.1,0.9-1.8,2.3-1.8c-0.3-0.8-1.4-1.2-2.5-1.2c-1.6,0-3.8,1-5.4,4.9v8.5c0,1.1,1.1,1.5,3.4,1.5v1.2h-9.4v-1.2c2,0,3-0.4,3-1.5
				V71.8c0-1.1-1-1.6-3-1.6v-1.1h6V72.4z"/>
		</g>
	</g>
</g>
<g id="Layer_1">
</g>
</svg>
