<?xml version="1.0" encoding="utf-8"?>
<!-- Generator: Adobe Illustrator 26.5.0, SVG Export Plug-In . SVG Version: 6.00 Build 0)  -->
<svg version="1.1" xmlns="http://www.w3.org/2000/svg" xmlns:xlink="http://www.w3.org/1999/xlink" x="0px" y="0px"
	 viewBox="0 0 479.52 111.4" style="enable-background:new 0 0 479.52 111.4;" xml:space="preserve">
<style type="text/css">
	.st0{fill:#FFFFFF;}
</style>
<g id="Layer_2">
	<g>
		<g>
			<path class="st0" d="M82.6,11.41c-4.35,0-6.52,1.11-6.52,3.33v35.27c0,2.22,2.17,3.33,6.52,3.33v5.94H55.58v-5.94
				c4.3,0,6.45-1.11,6.45-3.33V15.47L48.56,59.28H36.75L23.28,15.47v34.55c0,2.22,2.15,3.33,6.45,3.33v5.94H9.16v-5.94
				c4.3,0,6.45-1.11,6.45-3.33V14.74c0-2.22-2.15-3.33-6.45-3.33V5.47h26.43l10.94,37.52L57.47,5.47H82.6V11.41z"/>
			<path class="st0" d="M107.02,25.77c-3.01,0-4.51,0.78-4.51,2.33v24.69c0,1.56,1.5,2.33,4.51,2.33v4.16H87.66v-4.16
				c3.04,0,4.56-0.78,4.56-2.33V28.1c0-1.55-1.52-2.33-4.56-2.33v-4.16h19.37V25.77z"/>
			<path class="st0" d="M153.31,25.77c-1.18,0.03-2.37,0.26-3.57,0.68c-1.2,0.42-2.28,1.02-3.22,1.8l-7.25,5.93l11.81,18.35
				c0.61,0.95,1.23,1.61,1.88,2c0.64,0.39,1.54,0.58,2.69,0.58h1.12v4.16h-20.94v-4.16h2.28c1.18,0,1.78-0.41,1.78-1.22
				c0-0.34-0.15-0.79-0.46-1.37l-7.4-12.42l-5.88,4.97v7.71c0,1.56,1.5,2.33,4.51,2.33v4.16h-19.31v-4.16
				c3.01,0,4.51-0.78,4.51-2.33V28.1c0-1.55-1.5-2.33-4.51-2.33v-4.16h19.31v4.16c-3.01,0-4.51,0.78-4.51,2.33v10.85l11.81-9.89
				c0.54-0.44,0.81-0.98,0.81-1.62c0-0.47-0.17-0.87-0.51-1.19c-0.34-0.32-0.85-0.48-1.52-0.48h-1.37v-4.16h17.95V25.77z"/>
			<path class="st0" d="M195.28,33.02l-5.07,0.25c-0.2-4.33-2.1-6.49-5.68-6.49h-9.53v10.59h3.85c1.59,0,2.54-1.89,2.84-5.68h4.46
				l-0.76,15.82h-4.36c-0.37-3.92-1.22-5.88-2.53-5.88h-3.5v12.47h7.71c5.34,0,8.21-3.21,8.62-9.63l5.17,0.36l-1.22,14.45H160.2
				v-4.16c3.01,0,4.51-0.78,4.51-2.33V28.1c0-1.55-1.5-2.33-4.51-2.33v-4.16h35.08V33.02z"/>
			<path class="st0" d="M299.93,11.41c-4.35,0-6.52,1.11-6.52,3.33v35.27c0,2.22,2.17,3.33,6.52,3.33v5.94h-27.01v-5.94
				c4.3,0,6.45-1.11,6.45-3.33V15.47l-13.47,43.82h-11.8l-13.47-43.82v34.55c0,2.22,2.15,3.33,6.45,3.33v5.94H226.5v-5.94
				c4.3,0,6.45-1.11,6.45-3.33V14.74c0-2.22-2.15-3.33-6.45-3.33V5.47h26.43l10.94,37.52L274.8,5.47h25.13V11.41z"/>
			<path class="st0" d="M324.06,20.8c2.74,0,5.26,0.33,7.58,0.99c2.31,0.66,4.31,1.75,5.98,3.27c1.67,1.52,2.97,3.54,3.9,6.06
				c0.93,2.52,1.39,5.62,1.39,9.3c0,3.04-0.4,5.78-1.19,8.21c-0.79,2.43-2,4.5-3.62,6.18c-1.62,1.69-3.66,2.99-6.11,3.9
				c-2.45,0.91-5.35,1.37-8.69,1.37c-2.74,0-5.26-0.32-7.55-0.96c-2.3-0.64-4.28-1.7-5.96-3.17c-1.67-1.47-2.97-3.41-3.9-5.83
				c-0.93-2.42-1.39-5.38-1.39-8.9c0-3.18,0.36-6.03,1.09-8.57c0.73-2.54,1.88-4.68,3.45-6.44c1.57-1.76,3.59-3.1,6.06-4.03
				C317.55,21.27,320.54,20.8,324.06,20.8z M324.31,26.18c-3.24,0-5.65,1.01-7.22,3.02c-1.57,2.01-2.36,5.25-2.36,9.71
				c0,3.24,0.2,5.89,0.61,7.93c0.41,2.05,0.98,3.64,1.72,4.79s1.65,1.93,2.71,2.36c1.06,0.42,2.24,0.63,3.52,0.63
				c1.69,0,3.13-0.25,4.34-0.74c1.2-0.49,2.18-1.28,2.94-2.38c0.76-1.1,1.32-2.53,1.67-4.28c0.35-1.76,0.53-3.9,0.53-6.44
				c0-2.94-0.2-5.35-0.61-7.22c-0.41-1.88-0.98-3.36-1.72-4.46c-0.74-1.1-1.64-1.86-2.69-2.28
				C326.71,26.39,325.56,26.18,324.31,26.18z"/>
			<path class="st0" d="M366.24,20.8c2.74,0,5.26,0.33,7.58,0.99c2.31,0.66,4.31,1.75,5.98,3.27c1.67,1.52,2.97,3.54,3.9,6.06
				c0.93,2.52,1.39,5.62,1.39,9.3c0,3.04-0.4,5.78-1.19,8.21c-0.79,2.43-2,4.5-3.62,6.18c-1.62,1.69-3.66,2.99-6.11,3.9
				c-2.45,0.91-5.35,1.37-8.69,1.37c-2.74,0-5.26-0.32-7.55-0.96c-2.3-0.64-4.28-1.7-5.96-3.17c-1.67-1.47-2.97-3.41-3.9-5.83
				c-0.93-2.42-1.39-5.38-1.39-8.9c0-3.18,0.36-6.03,1.09-8.57c0.73-2.54,1.88-4.68,3.45-6.44c1.57-1.76,3.59-3.1,6.06-4.03
				C359.73,21.27,362.72,20.8,366.24,20.8z M366.49,26.18c-3.24,0-5.65,1.01-7.22,3.02c-1.57,2.01-2.36,5.25-2.36,9.71
				c0,3.24,0.2,5.89,0.61,7.93c0.41,2.05,0.98,3.64,1.72,4.79c0.74,1.15,1.65,1.93,2.71,2.36c1.06,0.42,2.24,0.63,3.52,0.63
				c1.69,0,3.13-0.25,4.34-0.74c1.2-0.49,2.18-1.28,2.94-2.38c0.76-1.1,1.32-2.53,1.67-4.28c0.35-1.76,0.53-3.9,0.53-6.44
				c0-2.94-0.2-5.35-0.61-7.22c-0.41-1.88-0.98-3.36-1.72-4.46c-0.74-1.1-1.64-1.86-2.69-2.28
				C368.89,26.39,367.74,26.18,366.49,26.18z"/>
			<path class="st0" d="M431.18,52.69c0,0.98-0.15,1.9-0.46,2.75c-0.3,0.86-0.77,1.59-1.39,2.21c-0.63,0.62-1.44,1.1-2.43,1.45
				c-1,0.35-2.19,0.53-3.57,0.53c-1.62,0-3-0.2-4.13-0.61c-1.13-0.41-2.05-0.96-2.76-1.67c-0.71-0.71-1.23-1.54-1.57-2.48
				c-0.34-0.95-0.51-1.96-0.51-3.04v-3.3c0-1.32-0.08-2.42-0.23-3.3c-0.15-0.88-0.41-1.58-0.79-2.1c-0.37-0.52-0.86-0.9-1.47-1.14
				c-0.61-0.24-1.39-0.36-2.33-0.36h-5.88v11.15c0,1.56,1.88,2.33,5.63,2.33v4.16h-20.43v-4.11c3.01,0,4.51-0.78,4.51-2.34V28.11
				c0-1.56-1.5-2.34-4.51-2.34v-4.16h24.08c1.66,0,3.28,0.11,4.87,0.33c1.59,0.22,3,0.67,4.23,1.34c1.23,0.68,2.22,1.63,2.97,2.86
				c0.74,1.23,1.12,2.86,1.12,4.89c0,1.32-0.2,2.48-0.61,3.47c-0.41,1-0.94,1.85-1.6,2.56c-0.66,0.71-1.41,1.28-2.26,1.72
				c-0.85,0.44-1.72,0.76-2.64,0.96c0.91,0.27,1.71,0.64,2.41,1.09c0.69,0.46,1.28,1.04,1.77,1.76c0.49,0.71,0.86,1.58,1.12,2.62
				c0.25,1.03,0.38,2.25,0.38,3.64v4.07c0,0.75,0.15,1.3,0.46,1.65c0.3,0.36,0.69,0.53,1.17,0.53c0.51,0,0.91-0.18,1.22-0.53
				c0.3-0.36,0.46-0.9,0.46-1.65v-2.43h3.19V52.69z M403.65,27.04v10.34h6.49c1.89,0,3.27-0.41,4.13-1.24
				c0.86-0.83,1.29-2.29,1.29-4.39c0-1.55-0.42-2.73-1.27-3.52c-0.85-0.79-2.23-1.19-4.16-1.19H403.65z"/>
			<path class="st0" d="M469.45,33.02l-5.07,0.25c-0.2-4.33-2.1-6.49-5.68-6.49h-9.53v10.59h3.85c1.59,0,2.54-1.89,2.84-5.68h4.46
				l-0.76,15.82h-4.36c-0.37-3.92-1.22-5.88-2.53-5.88h-3.5v12.47h7.71c5.34,0,8.21-3.21,8.62-9.63l5.17,0.36l-1.22,14.45h-35.08
				v-4.16c3.01,0,4.51-0.78,4.51-2.33V28.1c0-1.55-1.5-2.33-4.51-2.33v-4.16h35.08V33.02z"/>
		</g>
		<g>
			<path class="st0" d="M40.33,85.71l-1.8,0.16c-1.32-4.67-4.91-8.14-10.34-8.14c-7.94,0-11.29,6.11-11.29,13.21
				c0,8.38,4.59,12.61,11.37,12.61c5.99,0,9.54-3.51,11.01-8.38l1.76,0.92c-1.52,4.79-5.19,9.9-13.05,9.9
				c-8.66,0-15.41-4.83-15.41-15.01c0-10.66,6.7-15.61,15.6-15.61c4.43,0,7.7,1.92,9.1,3.59l1.12-2.95h1.92V85.71z"/>
			<path class="st0" d="M63,102.08c0,1.16,0.4,1.76,1.2,1.76c0.76,0,1.16-0.84,1.16-1.76V99.4h1.4v2.28c0,2.67-0.76,3.95-3.27,3.95
				c-2.43,0-3.19-2.11-3.39-3.99c-1.2,2.28-4.79,4.39-8.78,4.39c-4.99,0-7.26-2.16-7.26-5.79c0-6.35,8.94-6.23,15.33-7.7V91.3
				c0-2.91-1.48-5.19-4.87-5.19c-3.19,0-5.39,0.8-6.43,1.8c1.08,0.08,2,0.88,2,1.96c0,1.32-0.88,2.31-2.4,2.31
				c-1.56,0-2.39-1-2.39-2.47c0-2.35,3.23-5.23,9.1-5.23c4.79,0,8.62,1.52,8.62,7.22V102.08z M59.4,93.93
				c-8.3,1.68-11.89,2.75-11.89,6.15c0,2.43,1.76,3.59,4.95,3.59c3.27,0,5.91-1.72,6.94-3.35V93.93z"/>
			<path class="st0" d="M103.78,102.23c0,1.24,1.2,1.76,3.47,1.76v1.36h-10.1v-1.36c2.04,0,3.03-0.52,3.03-1.76V90.98
				c0-3.27-0.8-4.47-2.47-4.47c-2.67,0-5.63,2.24-7.54,5.63v10.1c0,1.24,1,1.76,2.99,1.76v1.36h-9.62v-1.36c2,0,3.07-0.52,3.07-1.76
				V90.98c0-3.27-0.84-4.47-2.55-4.47c-2.79,0-5.83,2.24-7.54,5.63v10.1c0,1.24,1.04,1.76,3.07,1.76v1.36H69.5v-1.36
				c2.31,0,3.47-0.52,3.47-1.76V88.39c0-1.24-1.16-1.84-3.51-1.84v-1.32h7.06v4.19c1.64-2.08,4.35-4.55,8.46-4.55
				c2.87,0,4.63,1.44,5.11,4.63c1.68-2.16,4.83-4.63,8.5-4.63c3.31,0,5.19,1.6,5.19,5.87V102.23z"/>
			<path class="st0" d="M114.07,94.65c0,5.99,2.27,9.7,6.7,9.7c3.43,0,6.27-1.4,7.34-5.35l1.56,0.6c-1.04,3.35-3.55,6.43-8.9,6.43
				c-4.87,0-10.26-2.19-10.26-10.74c0-6.39,3.83-10.82,10.5-10.82c6.11,0,9.46,3.79,9.46,10.18H114.07z M126.76,93.14
				c0-4.19-2.23-7.02-5.95-7.02c-3.39,0-6.27,2-6.7,7.02H126.76z"/>
			<path class="st0" d="M140.6,89.06c1.68-2.95,4.23-4.19,6.59-4.19c2.15,0,4.91,1.24,4.91,4.71c0,1.6-0.92,2.59-2.51,2.59
				c-1.56,0-2.39-1-2.39-2.16c0-1.28,1-2.11,2.71-2.11c-0.4-0.88-1.64-1.4-2.95-1.4c-1.84,0-4.39,1.12-6.35,5.79v9.94
				c0,1.24,1.32,1.76,3.95,1.76v1.36h-10.97v-1.36c2.31,0,3.47-0.52,3.47-1.76V88.39c0-1.24-1.16-1.84-3.47-1.84v-1.32h7.02V89.06z"
				/>
			<path class="st0" d="M174.12,102.08c0,1.16,0.4,1.76,1.2,1.76c0.76,0,1.16-0.84,1.16-1.76V99.4h1.4v2.28
				c0,2.67-0.76,3.95-3.27,3.95c-2.44,0-3.19-2.11-3.39-3.99c-1.2,2.28-4.79,4.39-8.78,4.39c-4.99,0-7.26-2.16-7.26-5.79
				c0-6.35,8.94-6.23,15.33-7.7V91.3c0-2.91-1.48-5.19-4.87-5.19c-3.19,0-5.39,0.8-6.43,1.8c1.08,0.08,2,0.88,2,1.96
				c0,1.32-0.88,2.31-2.4,2.31c-1.56,0-2.39-1-2.39-2.47c0-2.35,3.23-5.23,9.1-5.23c4.79,0,8.62,1.52,8.62,7.22V102.08z
				 M170.53,93.93c-8.3,1.68-11.89,2.75-11.89,6.15c0,2.43,1.76,3.59,4.95,3.59c3.27,0,5.91-1.72,6.94-3.35V93.93z"/>
			<path class="st0" d="M198.66,109.94h-2.28V73.62h2.28V109.94z"/>
			<path class="st0" d="M242.51,84.95l-1.6,0.12c-0.48-4.59-2.39-6.9-5.71-6.9h-10.26v10.78h5.99c1.92,0,3.03-1.68,3.27-5.07h1.52
				l-0.6,12.33h-1.44c-0.28-3.55-1.32-5.27-3.03-5.27h-5.71v12.25h8.82c4.71,0,7.38-3.15,8.02-9.38l1.64,0.28l-0.92,11.25h-25.14
				v-1.4c2.31,0,3.51-0.56,3.51-1.8V79.21c0-1.24-1.2-1.8-3.51-1.8v-1.4h25.14V84.95z"/>
			<path class="st0" d="M267.41,102.23c0,1.24,1.2,1.76,3.51,1.76v1.36h-5.63l-0.32-3.27c-1.32,2.63-4.03,3.95-8.02,3.95
				c-5.27,0-10.14-3.11-10.14-10.74c0-7.94,5.55-10.82,10.74-10.82c2.71,0,5.07,0.76,6.27,2.04v-8.5c0-1.16-1.16-1.76-3.47-1.76
				v-1.32h7.06V102.23z M250.41,95.25c0,4.83,1.95,9.1,7.02,9.1c5.03,0,6.74-4.27,6.74-9.1c0-4.87-1.72-9.14-6.74-9.14
				C252.36,86.11,250.41,90.38,250.41,95.25z"/>
			<path class="st0" d="M281.01,102.23c0,1.24,1.12,1.76,3.51,1.76v1.36h-10.54v-1.36c2.31,0,3.47-0.52,3.47-1.76V88.39
				c0-1.24-1.16-1.84-3.47-1.84v-1.32h7.02V102.23z M278.86,81.16c-1.52,0-2.79-1.28-2.79-2.83c0-1.48,1.28-2.75,2.79-2.75
				c1.56,0,2.75,1.28,2.75,2.75C281.61,79.89,280.42,81.16,278.86,81.16z"/>
			<path class="st0" d="M294.62,85.23h5.35l-0.2,2.31c-1.48-0.32-3.19-0.44-5.15-0.44v14.97c0,1.24,0.6,1.76,1.95,1.76
				c1.28,0,1.76-0.8,1.76-1.76V99.4h1.48v2.28c0,2.28-0.56,3.95-4.03,3.95c-3.19,0-4.71-1.76-4.71-4.75V87.11h-3.51v-1.36
				c2.99-0.24,4.91-1.04,4.91-5.55v-0.88l2.16-0.28V85.23z"/>
			<path class="st0" d="M321.03,109.94h-2.28V73.62h2.28V109.94z"/>
			<path class="st0" d="M354.71,76.01c9.26,0,14.57,2.31,14.57,13.89s-5.31,15.45-14.57,15.45h-14.97v-1.4
				c2.31,0,3.51-0.56,3.51-1.8V79.21c0-1.24-1.2-1.8-3.51-1.8v-1.4H354.71z M347.33,78.17v25.02h8.02c7.14,0,9.66-5.35,9.66-13.17
				s-2.51-11.85-9.66-11.85H347.33z"/>
			<path class="st0" d="M379.49,89.06c1.68-2.95,4.23-4.19,6.59-4.19c2.15,0,4.91,1.24,4.91,4.71c0,1.6-0.92,2.59-2.51,2.59
				c-1.56,0-2.39-1-2.39-2.16c0-1.28,1-2.11,2.71-2.11c-0.4-0.88-1.64-1.4-2.95-1.4c-1.84,0-4.39,1.12-6.35,5.79v9.94
				c0,1.24,1.32,1.76,3.95,1.76v1.36h-10.97v-1.36c2.31,0,3.47-0.52,3.47-1.76V88.39c0-1.24-1.16-1.84-3.47-1.84v-1.32h7.02V89.06z"
				/>
			<path class="st0" d="M415.28,95.21c0,6.51-3.83,10.82-10.78,10.82c-5.51,0-10.3-2.67-10.3-10.34c0-6.79,3.51-11.22,10.74-11.22
				C410.61,84.47,415.28,87.23,415.28,95.21z M397.8,94.41c0,7.82,2.71,9.94,6.7,9.94c5.23,0,7.14-3.83,7.14-8.9
				c0-7.34-2.83-9.34-6.66-9.34C400.08,86.11,397.8,89.62,397.8,94.41z"/>
			<path class="st0" d="M440.54,102.23c0,1.24,1.16,1.76,3.51,1.76v1.36h-10.14v-1.36c2.04,0,3.07-0.52,3.07-1.76V90.98
				c0-3.27-1.32-4.47-3.27-4.47c-3.07,0-6.98,2.67-8.5,5.63v10.1c0,1.24,1.04,1.76,3.07,1.76v1.36h-10.1v-1.36
				c2.31,0,3.47-0.52,3.47-1.76V88.39c0-1.24-1.16-1.84-3.47-1.84v-1.32h7.02v4.03c2.11-2.35,5.31-4.39,9.14-4.39
				c3.79,0,6.19,1.6,6.19,5.87V102.23z"/>
			<path class="st0" d="M450.83,94.65c0,5.99,2.28,9.7,6.71,9.7c3.43,0,6.27-1.4,7.34-5.35l1.56,0.6c-1.04,3.35-3.55,6.43-8.9,6.43
				c-4.87,0-10.26-2.19-10.26-10.74c0-6.39,3.83-10.82,10.5-10.82c6.11,0,9.46,3.79,9.46,10.18H450.83z M463.52,93.14
				c0-4.19-2.23-7.02-5.95-7.02c-3.39,0-6.27,2-6.7,7.02H463.52z"/>
		</g>
	</g>
</g>
<g id="Layer_1">
</g>
</svg>
