<?xml version="1.0" encoding="utf-8"?>
<!-- Generator: Adobe Illustrator 26.5.0, SVG Export Plug-In . SVG Version: 6.00 Build 0)  -->
<svg version="1.1" id="Layer_1" xmlns="http://www.w3.org/2000/svg" xmlns:xlink="http://www.w3.org/1999/xlink" x="0px" y="0px"
	 viewBox="0 0 949.3 151.9" style="enable-background:new 0 0 949.3 151.9;" xml:space="preserve">
<style type="text/css">
	.st0{fill:#FFFFFF;}
</style>
<g>
	<g>
		<path class="st0" d="M94.3,24.3c-4.8,0-7.2,1.2-7.2,3.7v38.9c0,2.5,2.4,3.7,7.2,3.7v6.6H64.5v-6.6c4.7,0,7.1-1.2,7.1-3.7V28.8
			L56.8,77.2h-13L28.8,28.8v38.1c0,2.5,2.4,3.7,7.1,3.7v6.6H13.3v-6.6c4.7,0,7.1-1.2,7.1-3.7V28c0-2.5-2.4-3.7-7.1-3.7v-6.6h29.2
			l12.1,41.4l12.1-41.4h27.8V24.3z"/>
		<path class="st0" d="M121.3,40.2c-3.3,0-5,0.9-5,2.6V70c0,1.7,1.7,2.6,5,2.6v4.6H99.9v-4.6c3.4,0,5-0.9,5-2.6V42.7
			c0-1.7-1.7-2.6-5-2.6v-4.6h21.4V40.2z"/>
		<path class="st0" d="M165.4,49.2l-5.7,0.4c-0.6-2.9-1.7-5.2-3.4-6.8c-1.7-1.6-4-2.4-6.9-2.4c-4.2,0-7.2,1.4-9,4.2
			c-1.8,2.8-2.7,6.7-2.7,11.8c0,2.7,0.3,4.9,0.8,6.8s1.3,3.5,2.2,4.7c1,1.2,2.1,2.1,3.4,2.7c1.3,0.6,2.7,0.9,4.1,0.9
			c3.5,0,6.2-0.7,8.1-2.1c1.9-1.4,3.4-3.6,4.3-6.6l5.1,1.3c-0.5,1.9-1.2,3.6-2.1,5.3c-0.9,1.7-2.1,3.2-3.5,4.5
			c-1.5,1.3-3.2,2.3-5.4,3.1c-2.1,0.8-4.6,1.1-7.6,1.1c-2.9,0-5.7-0.4-8.3-1.3c-2.6-0.9-4.9-2.2-6.8-3.9c-1.9-1.8-3.4-4-4.6-6.6
			s-1.7-5.8-1.7-9.4c0-3.8,0.6-7,1.7-9.8c1.1-2.8,2.6-5.1,4.5-6.9c1.9-1.8,4-3.2,6.5-4.1c2.4-0.9,5-1.3,7.8-1.3c2.8,0,5.3,0.3,7.4,1
			c2.1,0.7,3.7,1.6,4.9,2.6l1.3-2.8h5.5V49.2z"/>
		<path class="st0" d="M217.6,40.2c-3.4,0-5,0.9-5,2.6V70c0,1.7,1.7,2.6,5,2.6v4.6h-20.8v-4.6c2.9,0,4.3-0.9,4.3-2.6V58h-14.7v12
			c0,1.7,1.5,2.6,4.4,2.6v4.6h-20.7v-4.6c3.3,0,5-0.9,5-2.6V42.7c0-1.7-1.7-2.6-5-2.6v-4.6h20.7v4.6c-2.9,0-4.4,0.9-4.4,2.6v9.9
			h14.7v-9.9c0-1.7-1.4-2.6-4.3-2.6v-4.6h20.8V40.2z"/>
		<path class="st0" d="M262.2,70.9c0.4,1.1,1.9,1.7,4.5,1.7v4.6h-22.4v-4.6h4.3c1.1,0,1.6-0.3,1.6-1c0-0.1-0.1-0.4-0.2-0.7l-1.6-4.5
			h-15.1l-1.4,4c-0.1,0.3-0.2,0.5-0.2,0.7c0,0.9,0.8,1.4,2.5,1.4h3.2v4.6h-15.8l-0.1-4.6c1.6,0,2.8-0.1,3.5-0.4
			c0.7-0.3,1.2-0.7,1.4-1.2l12.5-35.4h11.3L262.2,70.9z M235,61.5h12l-5.8-18.3L235,61.5z"/>
		<path class="st0" d="M309.6,48.2l-5.6,0.3c-0.2-4.8-2.3-7.2-6.3-7.2h-10.5V53h4.3c1.8,0,2.8-2.1,3.1-6.3h4.9l-0.8,17.5h-4.8
			c-0.4-4.3-1.3-6.5-2.8-6.5h-3.9v13.8h8.5c5.9,0,9.1-3.5,9.5-10.6l5.7,0.4l-1.3,16h-38.7v-4.6c3.3,0,5-0.9,5-2.6V42.7
			c0-1.7-1.7-2.6-5-2.6v-4.6h38.7V48.2z"/>
		<path class="st0" d="M338.2,40.2c-4.1,0-6.2,0.9-6.2,2.6v28.7h9.6c2.4,0,4.3-0.8,5.6-2.4c1.4-1.6,2.2-4.3,2.5-8.3l5,0.4l-1.3,16
			h-37.7v-4.6c3.3,0,5-0.9,5-2.6V42.7c0-1.7-1.7-2.6-5-2.6v-4.6h22.6V40.2z"/>
		<path class="st0" d="M437.9,24.3c-4.8,0-7.2,1.2-7.2,3.7v29.6c0,3.5-0.6,6.5-1.7,9.1c-1.1,2.6-2.7,4.8-4.8,6.5
			c-2.1,1.8-4.5,3.1-7.4,4c-2.9,0.9-6,1.3-9.5,1.3c-3,0-5.7-0.4-8.2-1.1c-2.5-0.7-4.6-1.8-6.4-3.2c-1.8-1.4-3.2-3.1-4.2-5.2
			c-1-2.1-1.5-4.4-1.5-6.9c0-2.7,0.8-4.9,2.3-6.5c1.5-1.6,3.6-2.4,6.1-2.4c2.3,0,4.1,0.6,5.3,1.8c1.3,1.2,1.9,2.8,1.9,4.8
			c0,1.7-0.5,3.2-1.6,4.4c-1.1,1.2-2.6,1.9-4.4,2.1c0.4,1.4,1.3,2.6,2.9,3.4c1.6,0.8,3.3,1.2,5.2,1.2c1.6,0,3-0.3,4.2-0.8
			c1.2-0.5,2.2-1.4,3-2.6c0.8-1.2,1.4-2.8,1.8-4.8c0.4-2,0.6-4.5,0.6-7.6V28c0-2.5-2.4-3.7-7.1-3.7v-6.6h30.6V24.3z"/>
		<path class="st0" d="M482.8,70.9c0.4,1.1,1.9,1.7,4.5,1.7v4.6h-22.4v-4.6h4.3c1.1,0,1.6-0.3,1.6-1c0-0.1-0.1-0.4-0.2-0.7l-1.6-4.5
			h-15.1l-1.4,4c-0.1,0.3-0.2,0.5-0.2,0.7c0,0.9,0.8,1.4,2.5,1.4h3.2v4.6h-15.8l-0.1-4.6c1.6,0,2.8-0.1,3.5-0.4
			c0.7-0.3,1.2-0.7,1.4-1.2l12.5-35.4h11.3L482.8,70.9z M455.6,61.5h12l-5.8-18.3L455.6,61.5z"/>
		<path class="st0" d="M548.2,40.2c-3.4,0-5,0.9-5,2.6V70c0,1.7,1.7,2.6,5,2.6v4.6h-20.9v-4.6c3.3,0,5-0.9,5-2.6V43.3l-10.4,33.9
			h-9.1l-10.4-33.9V70c0,1.7,1.7,2.6,5,2.6v4.6h-15.9v-4.6c3.3,0,5-0.9,5-2.6V42.7c0-1.7-1.7-2.6-5-2.6v-4.6h20.4l8.5,29l8.5-29
			h19.4V40.2z"/>
		<path class="st0" d="M591.1,48.2l-5.6,0.3c-0.2-4.8-2.3-7.2-6.3-7.2h-10.5V53h4.3c1.8,0,2.8-2.1,3.1-6.3h4.9l-0.8,17.5h-4.8
			c-0.4-4.3-1.3-6.5-2.8-6.5h-3.9v13.8h8.5c5.9,0,9.1-3.5,9.5-10.6l5.7,0.4l-1.3,16h-38.7v-4.6c3.3,0,5-0.9,5-2.6V42.7
			c0-1.7-1.7-2.6-5-2.6v-4.6h38.7V48.2z"/>
		<path class="st0" d="M631.7,49.6l-5,0.5c-0.2-1.7-0.7-3.1-1.5-4.3c-0.7-1.2-1.7-2.2-2.8-2.9c-1.1-0.7-2.4-1.3-3.9-1.7
			c-1.5-0.4-3.1-0.5-4.8-0.5c-0.7,0-1.6,0-2.5,0.1c-0.9,0.1-1.7,0.3-2.5,0.6c-0.8,0.3-1.4,0.8-2,1.4c-0.5,0.6-0.8,1.4-0.8,2.5
			c0,0.9,0.3,1.6,0.9,2.2c0.6,0.6,1.4,1.1,2.4,1.5c1,0.4,2.1,0.7,3.4,1c1.3,0.3,2.7,0.5,4.1,0.8c1.4,0.2,2.9,0.5,4.4,0.9
			c1.5,0.3,3,0.7,4.4,1.2c2.7,1,4.8,2.4,6.3,4.3c1.5,1.9,2.2,4.4,2.2,7.6c0,2.2-0.4,4.1-1.2,5.8c-0.8,1.7-1.9,3.1-3.3,4.2
			c-1.4,1.1-3.1,2-5.1,2.5s-4.1,0.9-6.4,0.9c-2.8,0-5-0.3-6.7-0.8c-1.7-0.5-3.2-1.1-4.5-1.8c-0.9-0.5-1.6-0.7-2.3-0.7
			c-0.5,0-1,0.2-1.4,0.7c-0.4,0.5-0.7,1-1,1.7h-5.1V62.4l5-0.3c0.3,3.3,1.7,5.8,4.2,7.5c2.5,1.7,5.8,2.5,10,2.5
			c1.2,0,2.3-0.1,3.3-0.2c1.1-0.1,2-0.4,2.8-0.8c0.8-0.4,1.4-1,1.9-1.7c0.5-0.7,0.7-1.7,0.7-2.9c0-1.3-0.5-2.2-1.5-2.9
			c-1-0.7-2.3-1.2-3.9-1.6c-1.6-0.4-3.4-0.7-5.3-1c-2-0.3-3.9-0.7-5.9-1.2c-3.9-1-6.7-2.5-8.5-4.6c-1.8-2-2.7-4.9-2.7-8.7
			c0-1.6,0.3-3.1,0.8-4.5c0.5-1.4,1.4-2.7,2.5-3.8c1.2-1.1,2.6-1.9,4.4-2.6c1.8-0.7,4-1,6.5-1c2.7,0,4.9,0.2,6.6,0.7
			c1.7,0.5,3.2,1,4.3,1.6c0.4,0.2,0.8,0.4,1.1,0.5c0.3,0.1,0.6,0.2,1,0.2c0.8,0,1.4-0.2,1.8-0.5c0.4-0.4,0.8-0.9,1.2-1.6h4.3V49.6z"
			/>
		<path class="st0" d="M747.8,24.3c-4.8,0-7.2,1.2-7.2,3.7v38.9c0,2.5,2.4,3.7,7.2,3.7v6.6h-29.8v-6.6c4.7,0,7.1-1.2,7.1-3.7V28.8
			l-14.9,48.4h-13l-14.9-48.4v38.1c0,2.5,2.4,3.7,7.1,3.7v6.6h-22.7v-6.6c4.7,0,7.1-1.2,7.1-3.7V28c0-2.5-2.4-3.7-7.1-3.7v-6.6h29.2
			l12.1,41.4L720,17.8h27.8V24.3z"/>
		<path class="st0" d="M774.4,34.7c3,0,5.8,0.4,8.4,1.1c2.6,0.7,4.8,1.9,6.6,3.6c1.8,1.7,3.3,3.9,4.3,6.7c1,2.8,1.5,6.2,1.5,10.3
			c0,3.4-0.4,6.4-1.3,9.1c-0.9,2.7-2.2,5-4,6.8c-1.8,1.9-4,3.3-6.7,4.3c-2.7,1-5.9,1.5-9.6,1.5c-3,0-5.8-0.4-8.3-1.1
			s-4.7-1.9-6.6-3.5c-1.8-1.6-3.3-3.8-4.3-6.4c-1-2.7-1.5-5.9-1.5-9.8c0-3.5,0.4-6.7,1.2-9.5c0.8-2.8,2.1-5.2,3.8-7.1
			c1.7-1.9,4-3.4,6.7-4.5C767.2,35.2,770.5,34.7,774.4,34.7z M774.7,40.6c-3.6,0-6.2,1.1-8,3.3c-1.7,2.2-2.6,5.8-2.6,10.7
			c0,3.6,0.2,6.5,0.7,8.8c0.4,2.3,1.1,4,1.9,5.3c0.8,1.3,1.8,2.1,3,2.6c1.2,0.5,2.5,0.7,3.9,0.7c1.9,0,3.5-0.3,4.8-0.8
			c1.3-0.5,2.4-1.4,3.2-2.6c0.8-1.2,1.5-2.8,1.8-4.7c0.4-1.9,0.6-4.3,0.6-7.1c0-3.2-0.2-5.9-0.7-8s-1.1-3.7-1.9-4.9
			c-0.8-1.2-1.8-2.1-3-2.5C777.3,40.8,776.1,40.6,774.7,40.6z"/>
		<path class="st0" d="M821,34.7c3,0,5.8,0.4,8.4,1.1c2.6,0.7,4.8,1.9,6.6,3.6c1.8,1.7,3.3,3.9,4.3,6.7c1,2.8,1.5,6.2,1.5,10.3
			c0,3.4-0.4,6.4-1.3,9.1c-0.9,2.7-2.2,5-4,6.8c-1.8,1.9-4,3.3-6.7,4.3c-2.7,1-5.9,1.5-9.6,1.5c-3,0-5.8-0.4-8.3-1.1
			s-4.7-1.9-6.6-3.5c-1.8-1.6-3.3-3.8-4.3-6.4c-1-2.7-1.5-5.9-1.5-9.8c0-3.5,0.4-6.7,1.2-9.5c0.8-2.8,2.1-5.2,3.8-7.1
			c1.7-1.9,4-3.4,6.7-4.5C813.8,35.2,817.1,34.7,821,34.7z M821.2,40.6c-3.6,0-6.2,1.1-8,3.3c-1.7,2.2-2.6,5.8-2.6,10.7
			c0,3.6,0.2,6.5,0.7,8.8c0.4,2.3,1.1,4,1.9,5.3c0.8,1.3,1.8,2.1,3,2.6c1.2,0.5,2.5,0.7,3.9,0.7c1.9,0,3.5-0.3,4.8-0.8
			c1.3-0.5,2.4-1.4,3.2-2.6c0.8-1.2,1.5-2.8,1.8-4.7c0.4-1.9,0.6-4.3,0.6-7.1c0-3.2-0.2-5.9-0.7-8s-1.1-3.7-1.9-4.9
			c-0.8-1.2-1.8-2.1-3-2.5C823.9,40.8,822.6,40.6,821.2,40.6z"/>
		<path class="st0" d="M892.7,69.9c0,1.1-0.2,2.1-0.5,3s-0.8,1.8-1.5,2.4c-0.7,0.7-1.6,1.2-2.7,1.6c-1.1,0.4-2.4,0.6-3.9,0.6
			c-1.8,0-3.3-0.2-4.6-0.7c-1.3-0.4-2.3-1.1-3.1-1.8c-0.8-0.8-1.4-1.7-1.7-2.7s-0.6-2.2-0.6-3.4v-3.6c0-1.5-0.1-2.7-0.3-3.6
			s-0.5-1.7-0.9-2.3c-0.4-0.6-1-1-1.6-1.3c-0.7-0.3-1.5-0.4-2.6-0.4h-6.5V70c0,1.7,2.1,2.6,6.2,2.6v4.6h-22.6v-4.5
			c3.3,0,5-0.9,5-2.6V42.7c0-1.7-1.7-2.6-5-2.6v-4.6h26.6c1.8,0,3.6,0.1,5.4,0.4c1.8,0.2,3.3,0.7,4.7,1.5c1.4,0.7,2.5,1.8,3.3,3.2
			c0.8,1.4,1.2,3.2,1.2,5.4c0,1.5-0.2,2.7-0.7,3.8c-0.4,1.1-1,2-1.8,2.8c-0.7,0.8-1.6,1.4-2.5,1.9c-0.9,0.5-1.9,0.8-2.9,1.1
			c1,0.3,1.9,0.7,2.7,1.2c0.8,0.5,1.4,1.2,2,1.9c0.5,0.8,1,1.8,1.2,2.9c0.3,1.1,0.4,2.5,0.4,4v4.5c0,0.8,0.2,1.4,0.5,1.8
			s0.8,0.6,1.3,0.6c0.6,0,1-0.2,1.3-0.6c0.3-0.4,0.5-1,0.5-1.8v-2.7h3.5V69.9z M862.3,41.6V53h7.2c2.1,0,3.6-0.5,4.6-1.4
			c1-0.9,1.4-2.5,1.4-4.8c0-1.7-0.5-3-1.4-3.9c-0.9-0.9-2.5-1.3-4.6-1.3H862.3z"/>
		<path class="st0" d="M934.9,48.2l-5.6,0.3c-0.2-4.8-2.3-7.2-6.3-7.2h-10.5V53h4.3c1.8,0,2.8-2.1,3.1-6.3h4.9L924,64.2h-4.8
			c-0.4-4.3-1.3-6.5-2.8-6.5h-3.9v13.8h8.5c5.9,0,9.1-3.5,9.5-10.6l5.7,0.4l-1.3,16h-38.7v-4.6c3.3,0,5-0.9,5-2.6V42.7
			c0-1.7-1.7-2.6-5-2.6v-4.6h38.7V48.2z"/>
	</g>
	<g>
		<path class="st0" d="M173.4,120.1l-3.4,0.3c-0.3-1.7-1-3.1-2-4c-1-1-2.4-1.4-4.1-1.4c-2.5,0-4.3,0.8-5.3,2.5c-1.1,1.7-1.6,4-1.6,7
			c0,1.6,0.2,2.9,0.5,4.1c0.3,1.1,0.8,2.1,1.3,2.8c0.6,0.7,1.2,1.3,2,1.6c0.8,0.3,1.6,0.5,2.4,0.5c2.1,0,3.7-0.4,4.8-1.3
			c1.1-0.8,2-2.1,2.6-3.9l3,0.8c-0.3,1.1-0.7,2.2-1.2,3.2c-0.5,1-1.2,1.9-2.1,2.7c-0.9,0.8-1.9,1.4-3.2,1.8
			c-1.3,0.5-2.8,0.7-4.5,0.7c-1.7,0-3.4-0.3-4.9-0.8c-1.5-0.5-2.9-1.3-4-2.3c-1.1-1-2-2.3-2.7-3.9s-1-3.4-1-5.6c0-2.2,0.3-4.2,1-5.8
			c0.7-1.6,1.5-3,2.6-4.1c1.1-1.1,2.4-1.9,3.8-2.4c1.4-0.5,3-0.8,4.6-0.8c1.7,0,3.1,0.2,4.4,0.6c1.2,0.4,2.2,0.9,2.9,1.6l0.8-1.7
			h3.3V120.1z"/>
		<path class="st0" d="M194,132.9c0,0.9,0.3,1.4,1,1.4c0.3,0,0.5-0.1,0.7-0.4c0.2-0.3,0.2-0.6,0.2-1v-1.7h1.9v1.1
			c0,0.9-0.1,1.7-0.4,2.3s-0.6,1.1-1.1,1.4c-0.4,0.4-0.9,0.6-1.5,0.7c-0.6,0.1-1.1,0.2-1.7,0.2c-1.4,0-2.4-0.3-3-0.9
			c-0.7-0.6-1.1-1.4-1.3-2.4c-0.2,0.5-0.5,1-0.9,1.4c-0.4,0.4-0.8,0.8-1.4,1.2c-0.6,0.3-1.2,0.6-1.9,0.8c-0.7,0.2-1.6,0.3-2.5,0.3
			c-2.1,0-3.6-0.4-4.5-1.3c-0.9-0.9-1.4-2-1.4-3.4c0-0.9,0.2-1.6,0.5-2.2c0.3-0.6,0.7-1,1.3-1.4s1.2-0.7,1.9-0.9
			c0.8-0.2,1.6-0.4,2.5-0.6c0.9-0.2,1.8-0.4,2.8-0.6c1-0.2,2-0.5,3-0.8v-1c0-0.5-0.1-0.9-0.2-1.4c-0.1-0.4-0.3-0.8-0.6-1.2
			c-0.3-0.3-0.7-0.6-1.1-0.8c-0.5-0.2-1-0.3-1.6-0.3c-0.9,0-1.7,0.1-2.3,0.2c-0.6,0.2-1.2,0.4-1.7,0.7c0.5,0,1,0.2,1.4,0.5
			c0.4,0.3,0.6,0.7,0.6,1.3c0,0.7-0.2,1.2-0.7,1.6c-0.5,0.4-1.1,0.6-2,0.6c-1.8,0-2.7-0.9-2.7-2.6c0-0.6,0.2-1.2,0.5-1.8
			c0.4-0.6,0.9-1.1,1.6-1.5c0.7-0.4,1.6-0.8,2.6-1c1-0.3,2.2-0.4,3.5-0.4c1,0,2,0.1,3.1,0.3c1,0.2,1.9,0.5,2.7,1
			c0.8,0.5,1.4,1.1,1.9,1.9c0.5,0.8,0.7,1.8,0.7,3V132.9z M188.2,127.5c-1,0.4-2,0.8-2.8,1.1c-0.8,0.3-1.5,0.6-2.1,0.9s-1,0.6-1.3,1
			c-0.3,0.4-0.4,0.9-0.4,1.5c0,0.6,0.2,1.1,0.6,1.4c0.4,0.4,1,0.6,1.9,0.6c0.9,0,1.7-0.2,2.4-0.7c0.7-0.5,1.2-1.1,1.6-1.8V127.5z"/>
		<path class="st0" d="M232.3,132.4c0,1,0.9,1.5,2.7,1.5v2.7h-10.6v-2.7c1.2,0,1.8-0.5,1.8-1.5v-5.2c0-1.4-0.1-2.4-0.4-3
			c-0.3-0.6-0.8-1-1.4-1c-0.8,0-1.6,0.3-2.2,1s-1.2,1.7-1.6,3v5.2c0,0.5,0.2,0.9,0.5,1.1c0.3,0.2,0.7,0.4,1.3,0.4v2.7h-9.6v-2.7
			c1.2,0,1.8-0.5,1.8-1.5v-5.2c0-1.4-0.1-2.4-0.4-3c-0.3-0.6-0.8-1-1.4-1c-0.8,0-1.6,0.3-2.3,1s-1.2,1.7-1.6,3v5.2
			c0,1,0.6,1.5,1.8,1.5v2.7h-10.5v-2.7c1.8,0,2.7-0.5,2.7-1.5v-8.5c0-1-0.9-1.5-2.6-1.5v-2.7h8.7l0,3.4c0.7-1.1,1.6-2,2.7-2.7
			c1.1-0.7,2.4-1,4-1c1.3,0,2.5,0.3,3.4,0.9c0.9,0.6,1.5,1.6,1.7,2.9c1.5-2.5,3.7-3.8,6.7-3.8c1.5,0,2.8,0.4,3.7,1.2
			c0.9,0.8,1.4,2,1.4,3.8V132.4z"/>
		<path class="st0" d="M243.7,128.2c0,2,0.4,3.5,1,4.5c0.6,1,1.7,1.5,3.1,1.5c1.1,0,2-0.3,2.9-0.8c0.9-0.6,1.4-1.4,1.7-2.6l2.8,0.3
			c-0.2,0.8-0.4,1.5-0.8,2.2c-0.4,0.7-0.9,1.4-1.5,1.9c-0.6,0.6-1.4,1-2.3,1.4c-0.9,0.3-2,0.5-3.2,0.5c-1.3,0-2.5-0.1-3.6-0.4
			c-1.2-0.3-2.2-0.8-3.1-1.5c-0.9-0.7-1.6-1.6-2.1-2.8c-0.5-1.2-0.8-2.6-0.8-4.4c0-1.4,0.2-2.7,0.6-3.8c0.4-1.1,1-2.1,1.8-2.9
			c0.8-0.8,1.8-1.4,2.9-1.8c1.2-0.4,2.5-0.6,4-0.6c3,0,5.2,0.7,6.6,2.2c1.4,1.5,2.1,3.8,2.1,7H243.7z M250.7,125.9
			c0-0.6-0.1-1.1-0.2-1.7s-0.3-1-0.6-1.5c-0.3-0.4-0.6-0.8-1-1c-0.4-0.3-0.9-0.4-1.5-0.4c-1,0-1.8,0.4-2.4,1.1
			c-0.6,0.7-1,1.9-1.1,3.5H250.7z"/>
		<path class="st0" d="M267.3,122.8c0.6-1.3,1.3-2.2,2.2-2.8c0.9-0.6,1.9-0.9,2.9-0.9c0.5,0,1.1,0.1,1.6,0.3c0.6,0.2,1,0.4,1.5,0.8
			s0.8,0.8,1.1,1.3c0.3,0.5,0.4,1.1,0.4,1.9c0,1.1-0.3,1.9-0.8,2.6s-1.3,1-2.2,1c-0.9,0-1.5-0.2-2-0.7c-0.5-0.4-0.7-1-0.7-1.7
			c0-0.6,0.2-1.1,0.5-1.5c0.3-0.4,0.9-0.7,1.7-0.7c-0.2-0.3-0.5-0.5-0.8-0.7c-0.3-0.1-0.6-0.2-1-0.2c-0.4,0-0.9,0.1-1.3,0.4
			c-0.4,0.3-0.9,0.6-1.3,1.1c-0.4,0.5-0.8,1-1.1,1.6c-0.3,0.6-0.6,1.3-0.7,2v5.8c0,0.5,0.3,0.9,0.9,1.1c0.6,0.2,1.4,0.4,2.3,0.4v2.7
			h-12.1v-2.7c1.9,0,2.8-0.5,2.8-1.5v-8.5c0-1-0.9-1.5-2.8-1.5v-2.7h8.9V122.8z"/>
		<path class="st0" d="M297.3,132.9c0,0.9,0.3,1.4,1,1.4c0.3,0,0.5-0.1,0.7-0.4c0.2-0.3,0.2-0.6,0.2-1v-1.7h1.9v1.1
			c0,0.9-0.1,1.7-0.4,2.3s-0.6,1.1-1.1,1.4c-0.4,0.4-0.9,0.6-1.5,0.7c-0.6,0.1-1.1,0.2-1.7,0.2c-1.4,0-2.4-0.3-3-0.9
			c-0.7-0.6-1.1-1.4-1.3-2.4c-0.2,0.5-0.5,1-0.9,1.4c-0.4,0.4-0.8,0.8-1.4,1.2c-0.6,0.3-1.2,0.6-1.9,0.8c-0.7,0.2-1.6,0.3-2.5,0.3
			c-2.1,0-3.6-0.4-4.5-1.3c-0.9-0.9-1.4-2-1.4-3.4c0-0.9,0.2-1.6,0.5-2.2c0.3-0.6,0.7-1,1.3-1.4s1.2-0.7,1.9-0.9
			c0.8-0.2,1.6-0.4,2.5-0.6c0.9-0.2,1.8-0.4,2.8-0.6c1-0.2,2-0.5,3-0.8v-1c0-0.5-0.1-0.9-0.2-1.4c-0.1-0.4-0.3-0.8-0.6-1.2
			c-0.3-0.3-0.7-0.6-1.1-0.8c-0.5-0.2-1-0.3-1.6-0.3c-0.9,0-1.7,0.1-2.3,0.2c-0.6,0.2-1.2,0.4-1.7,0.7c0.5,0,1,0.2,1.4,0.5
			c0.4,0.3,0.6,0.7,0.6,1.3c0,0.7-0.2,1.2-0.7,1.6c-0.5,0.4-1.1,0.6-2,0.6c-1.8,0-2.7-0.9-2.7-2.6c0-0.6,0.2-1.2,0.5-1.8
			c0.4-0.6,0.9-1.1,1.6-1.5c0.7-0.4,1.6-0.8,2.6-1c1-0.3,2.2-0.4,3.5-0.4c1,0,2,0.1,3.1,0.3c1,0.2,1.9,0.5,2.7,1
			c0.8,0.5,1.4,1.1,1.9,1.9c0.5,0.8,0.7,1.8,0.7,3V132.9z M291.6,127.5c-1,0.4-2,0.8-2.8,1.1c-0.8,0.3-1.5,0.6-2.1,0.9s-1,0.6-1.3,1
			c-0.3,0.4-0.4,0.9-0.4,1.5c0,0.6,0.2,1.1,0.6,1.4c0.4,0.4,1,0.6,1.9,0.6c0.9,0,1.7-0.2,2.4-0.7c0.7-0.5,1.2-1.1,1.6-1.8V127.5z"/>
		<path class="st0" d="M335.7,132.4c0,1,0.9,1.5,2.7,1.5v2.7h-10.6v-2.7c1.2,0,1.8-0.5,1.8-1.5v-5.2c0-1.4-0.1-2.4-0.4-3
			c-0.3-0.6-0.8-1-1.4-1c-0.8,0-1.6,0.3-2.2,1s-1.2,1.7-1.6,3v5.2c0,0.5,0.2,0.9,0.5,1.1c0.3,0.2,0.7,0.4,1.3,0.4v2.7h-9.6v-2.7
			c1.2,0,1.8-0.5,1.8-1.5v-5.2c0-1.4-0.1-2.4-0.4-3c-0.3-0.6-0.8-1-1.4-1c-0.8,0-1.6,0.3-2.3,1s-1.2,1.7-1.6,3v5.2
			c0,1,0.6,1.5,1.8,1.5v2.7h-10.5v-2.7c1.8,0,2.7-0.5,2.7-1.5v-8.5c0-1-0.9-1.5-2.6-1.5v-2.7h8.7l0,3.4c0.7-1.1,1.6-2,2.7-2.7
			c1.1-0.7,2.4-1,4-1c1.3,0,2.5,0.3,3.4,0.9c0.9,0.6,1.5,1.6,1.7,2.9c1.5-2.5,3.7-3.8,6.7-3.8c1.5,0,2.8,0.4,3.7,1.2
			c0.9,0.8,1.4,2,1.4,3.8V132.4z"/>
		<path class="st0" d="M358.7,132.9c0,0.9,0.3,1.4,1,1.4c0.3,0,0.5-0.1,0.7-0.4c0.2-0.3,0.2-0.6,0.2-1v-1.7h1.9v1.1
			c0,0.9-0.1,1.7-0.4,2.3s-0.6,1.1-1.1,1.4c-0.4,0.4-0.9,0.6-1.5,0.7c-0.6,0.1-1.1,0.2-1.7,0.2c-1.4,0-2.4-0.3-3-0.9
			c-0.7-0.6-1.1-1.4-1.3-2.4c-0.2,0.5-0.5,1-0.9,1.4c-0.4,0.4-0.8,0.8-1.4,1.2c-0.6,0.3-1.2,0.6-1.9,0.8c-0.7,0.2-1.6,0.3-2.5,0.3
			c-2.1,0-3.6-0.4-4.5-1.3c-0.9-0.9-1.4-2-1.4-3.4c0-0.9,0.2-1.6,0.5-2.2c0.3-0.6,0.7-1,1.3-1.4s1.2-0.7,1.9-0.9
			c0.8-0.2,1.6-0.4,2.5-0.6c0.9-0.2,1.8-0.4,2.8-0.6c1-0.2,2-0.5,3-0.8v-1c0-0.5-0.1-0.9-0.2-1.4c-0.1-0.4-0.3-0.8-0.6-1.2
			c-0.3-0.3-0.7-0.6-1.1-0.8c-0.5-0.2-1-0.3-1.6-0.3c-0.9,0-1.7,0.1-2.3,0.2c-0.6,0.2-1.2,0.4-1.7,0.7c0.5,0,1,0.2,1.4,0.5
			c0.4,0.3,0.6,0.7,0.6,1.3c0,0.7-0.2,1.2-0.7,1.6c-0.5,0.4-1.1,0.6-2,0.6c-1.8,0-2.7-0.9-2.7-2.6c0-0.6,0.2-1.2,0.5-1.8
			c0.4-0.6,0.9-1.1,1.6-1.5c0.7-0.4,1.6-0.8,2.6-1c1-0.3,2.2-0.4,3.5-0.4c1,0,2,0.1,3.1,0.3c1,0.2,1.9,0.5,2.7,1
			c0.8,0.5,1.4,1.1,1.9,1.9c0.5,0.8,0.7,1.8,0.7,3V132.9z M353,127.5c-1,0.4-2,0.8-2.8,1.1c-0.8,0.3-1.5,0.6-2.1,0.9s-1,0.6-1.3,1
			c-0.3,0.4-0.4,0.9-0.4,1.5c0,0.6,0.2,1.1,0.6,1.4c0.4,0.4,1,0.6,1.9,0.6c0.9,0,1.7-0.2,2.4-0.7c0.7-0.5,1.2-1.1,1.6-1.8V127.5z"/>
		<path class="st0" d="M386.3,132.4c0,1,1,1.5,2.9,1.5v2.7h-10.8v-2.7c1.3,0,1.9-0.5,1.9-1.5v-5.2c0-1.4-0.2-2.4-0.6-3
			c-0.4-0.6-0.9-1-1.6-1c-0.9,0-1.8,0.4-2.6,1.1c-0.8,0.7-1.4,1.7-1.8,3v5.2c0,1,0.6,1.5,1.9,1.5v2.7h-10.8v-2.7
			c1.9,0,2.8-0.5,2.8-1.5v-8.5c0-1-0.9-1.5-2.8-1.5v-2.7h8.9l0,3.4c0.8-1.2,1.8-2.1,3-2.8c1.2-0.6,2.6-1,4.3-1c1.7,0,3,0.4,4,1.2
			c0.9,0.8,1.4,2,1.4,3.8V132.4z"/>
		<path class="st0" d="M408.5,140.5H405v-30.6h3.5V140.5z"/>
		<path class="st0" d="M437.5,112c2.1,0,3.9,0.1,5.5,0.4c1.5,0.3,2.8,0.8,3.8,1.7c1,0.8,1.7,2,2.2,3.6s0.7,3.5,0.7,6
			c0,2.6-0.2,4.7-0.7,6.4s-1.2,3-2.2,4c-1,1-2.3,1.7-3.8,2.1c-1.5,0.4-3.4,0.6-5.5,0.6h-13.3v-2.7c2,0,3-0.5,3-1.5v-16.2
			c0-1-1-1.5-3-1.5V112H437.5z M433.9,115.3v17.9h4.2c1,0,1.8-0.2,2.4-0.6c0.6-0.4,1.1-1,1.4-1.7c0.3-0.8,0.6-1.8,0.7-3
			c0.1-1.2,0.2-2.6,0.2-4.2s-0.1-3-0.2-4.1s-0.4-1.9-0.7-2.6c-0.3-0.6-0.8-1.1-1.4-1.3c-0.6-0.3-1.4-0.4-2.4-0.4H433.9z"/>
		<path class="st0" d="M461.3,122.8c0.6-1.3,1.3-2.2,2.2-2.8c0.9-0.6,1.9-0.9,2.9-0.9c0.5,0,1.1,0.1,1.6,0.3c0.6,0.2,1,0.4,1.5,0.8
			s0.8,0.8,1.1,1.3c0.3,0.5,0.4,1.1,0.4,1.9c0,1.1-0.3,1.9-0.8,2.6s-1.3,1-2.2,1c-0.9,0-1.5-0.2-2-0.7c-0.5-0.4-0.7-1-0.7-1.7
			c0-0.6,0.2-1.1,0.5-1.5c0.3-0.4,0.9-0.7,1.7-0.7c-0.2-0.3-0.5-0.5-0.8-0.7c-0.3-0.1-0.6-0.2-1-0.2c-0.4,0-0.9,0.1-1.3,0.4
			c-0.4,0.3-0.9,0.6-1.3,1.1c-0.4,0.5-0.8,1-1.1,1.6c-0.3,0.6-0.6,1.3-0.7,2v5.8c0,0.5,0.3,0.9,0.9,1.1c0.6,0.2,1.4,0.4,2.3,0.4v2.7
			h-12.1v-2.7c1.9,0,2.8-0.5,2.8-1.5v-8.5c0-1-0.9-1.5-2.8-1.5v-2.7h8.9V122.8z"/>
		<path class="st0" d="M492.6,128.1c0,3-0.8,5.3-2.5,6.8c-1.7,1.5-4,2.3-7.1,2.3c-1.2,0-2.4-0.1-3.5-0.4s-2.1-0.7-2.9-1.4
			c-0.8-0.7-1.5-1.5-2-2.7c-0.5-1.1-0.7-2.5-0.7-4.3c0-6.3,3.2-9.4,9.6-9.4c1.3,0,2.5,0.1,3.6,0.4c1.1,0.3,2.1,0.8,3,1.4
			c0.8,0.7,1.5,1.6,2,2.8C492.3,124.9,492.6,126.3,492.6,128.1z M483.2,122c-1.2,0-2.1,0.4-2.6,1.3s-0.8,2.3-0.8,4.3
			c0,1.4,0.1,2.5,0.2,3.4c0.1,0.9,0.3,1.6,0.6,2.1s0.6,0.8,1,1c0.4,0.2,0.9,0.3,1.5,0.3c1.3,0,2.2-0.5,2.7-1.4
			c0.5-0.9,0.8-2.5,0.8-4.6c0-1.3-0.1-2.3-0.2-3.1c-0.1-0.8-0.4-1.4-0.6-1.9c-0.3-0.5-0.6-0.8-1-1C484.2,122.1,483.8,122,483.2,122z
			"/>
		<path class="st0" d="M516.5,132.4c0,1,1,1.5,2.9,1.5v2.7h-10.8v-2.7c1.3,0,1.9-0.5,1.9-1.5v-5.2c0-1.4-0.2-2.4-0.6-3
			c-0.4-0.6-0.9-1-1.6-1c-0.9,0-1.8,0.4-2.6,1.1s-1.4,1.7-1.8,3v5.2c0,1,0.6,1.5,1.9,1.5v2.7H495v-2.7c1.9,0,2.8-0.5,2.8-1.5v-8.5
			c0-1-0.9-1.5-2.8-1.5v-2.7h8.9l0,3.4c0.8-1.2,1.8-2.1,3-2.8c1.2-0.6,2.6-1,4.3-1c1.7,0,3,0.4,4,1.2c0.9,0.8,1.4,2,1.4,3.8V132.4z"
			/>
		<path class="st0" d="M528,128.2c0,2,0.4,3.5,1,4.5c0.6,1,1.7,1.5,3.1,1.5c1.1,0,2-0.3,2.9-0.8c0.9-0.6,1.4-1.4,1.7-2.6l2.8,0.3
			c-0.2,0.8-0.4,1.5-0.8,2.2c-0.4,0.7-0.9,1.4-1.5,1.9c-0.6,0.6-1.4,1-2.3,1.4c-0.9,0.3-2,0.5-3.2,0.5c-1.3,0-2.5-0.1-3.6-0.4
			c-1.2-0.3-2.2-0.8-3.1-1.5c-0.9-0.7-1.6-1.6-2.1-2.8c-0.5-1.2-0.8-2.6-0.8-4.4c0-1.4,0.2-2.7,0.6-3.8c0.4-1.1,1-2.1,1.8-2.9
			s1.8-1.4,2.9-1.8c1.2-0.4,2.5-0.6,4-0.6c3,0,5.2,0.7,6.6,2.2s2.1,3.8,2.1,7H528z M535,125.9c0-0.6-0.1-1.1-0.2-1.7s-0.3-1-0.6-1.5
			c-0.3-0.4-0.6-0.8-1-1s-0.9-0.4-1.5-0.4c-1,0-1.8,0.4-2.4,1.1c-0.6,0.7-1,1.9-1.1,3.5H535z"/>
		<path class="st0" d="M568.2,112c1.4,0,2.7,0.1,3.9,0.3c1.1,0.2,2.1,0.6,2.9,1.1c0.8,0.5,1.4,1.3,1.8,2.2c0.4,0.9,0.6,2.1,0.6,3.6
			s-0.2,2.7-0.6,3.7c-0.4,1-1,1.8-1.8,2.5c-0.8,0.6-1.7,1.1-2.9,1.4c-1.1,0.3-2.4,0.4-3.9,0.4h-4.5v5.2c0,1,1.2,1.5,3.7,1.5v2.7
			h-13.4v-2.7c2,0,3-0.5,3-1.5v-16.2c0-1-1-1.5-3-1.5V112H568.2z M563.8,115.5v8.1h2.9c1.6,0,2.7-0.3,3.4-1c0.6-0.7,1-1.8,1-3.4
			c0-1.2-0.3-2-1-2.7c-0.6-0.6-1.8-1-3.4-1H563.8z"/>
		<path class="st0" d="M588.8,132.4c0,1,0.9,1.5,2.8,1.5v2.7h-11.7v-2.7c1.9,0,2.8-0.5,2.8-1.5v-8.5c0-1-0.9-1.5-2.8-1.5v-2.7h8.9
			V132.4z M589.1,114.4c0,0.5-0.1,0.9-0.3,1.3c-0.2,0.4-0.4,0.8-0.7,1.1c-0.3,0.3-0.7,0.6-1.1,0.7c-0.4,0.2-0.8,0.3-1.3,0.3
			s-0.9-0.1-1.3-0.3c-0.4-0.2-0.8-0.4-1.1-0.7c-0.3-0.3-0.6-0.7-0.7-1.1c-0.2-0.4-0.3-0.8-0.3-1.3s0.1-0.9,0.3-1.3
			c0.2-0.4,0.4-0.7,0.7-1c0.3-0.3,0.7-0.5,1.1-0.7c0.4-0.2,0.8-0.3,1.3-0.3s0.9,0.1,1.3,0.3c0.4,0.2,0.8,0.4,1.1,0.7
			c0.3,0.3,0.5,0.6,0.7,1C589,113.5,589.1,113.9,589.1,114.4z"/>
		<path class="st0" d="M603.1,132.4c0,1,0.9,1.5,2.8,1.5v2.7h-11.7v-2.7c1.9,0,2.8-0.5,2.8-1.5v-17.2c0-1-0.9-1.5-2.8-1.5v-2.7h8.9
			V132.4z"/>
		<path class="st0" d="M627.4,128.1c0,3-0.8,5.3-2.5,6.8c-1.7,1.5-4,2.3-7.1,2.3c-1.2,0-2.4-0.1-3.5-0.4s-2.1-0.7-2.9-1.4
			c-0.8-0.7-1.5-1.5-2-2.7c-0.5-1.1-0.7-2.5-0.7-4.3c0-6.3,3.2-9.4,9.6-9.4c1.3,0,2.5,0.1,3.6,0.4c1.1,0.3,2.1,0.8,3,1.4
			c0.8,0.7,1.5,1.6,2,2.8C627.2,124.9,627.4,126.3,627.4,128.1z M618.1,122c-1.2,0-2.1,0.4-2.6,1.3c-0.6,0.9-0.8,2.3-0.8,4.3
			c0,1.4,0.1,2.5,0.2,3.4c0.1,0.9,0.3,1.6,0.6,2.1c0.3,0.5,0.6,0.8,1,1c0.4,0.2,0.9,0.3,1.5,0.3c1.3,0,2.2-0.5,2.7-1.4
			c0.5-0.9,0.8-2.5,0.8-4.6c0-1.3-0.1-2.3-0.2-3.1c-0.1-0.8-0.4-1.4-0.6-1.9c-0.3-0.5-0.6-0.8-1-1C619.1,122.1,618.6,122,618.1,122z
			"/>
		<path class="st0" d="M638.8,119.7h4.4l-0.2,2.8c-0.6-0.1-1.3-0.2-2-0.3c-0.7-0.1-1.4-0.1-2.2-0.1v10.6c0,0.5,0.1,0.9,0.3,1.1
			c0.2,0.2,0.5,0.4,1,0.4s0.8-0.1,1-0.4c0.2-0.3,0.3-0.6,0.3-1.1v-1.6h2v1c0,0.7-0.1,1.3-0.2,1.9c-0.2,0.6-0.4,1.1-0.8,1.5
			c-0.4,0.4-0.9,0.7-1.5,0.9s-1.4,0.3-2.3,0.3c-2.1,0-3.5-0.4-4.4-1.3c-0.8-0.9-1.3-2.1-1.3-3.6v-9.8h-2.9v-2c0.6,0,1.2-0.1,1.8-0.3
			c0.6-0.1,1.1-0.4,1.6-0.7c0.5-0.3,0.8-0.8,1.1-1.4c0.3-0.6,0.4-1.4,0.4-2.3v-0.7l4.1-0.2V119.7z"/>
		<path class="st0" d="M662.4,140.5h-3.5v-30.6h3.5V140.5z"/>
		<path class="st0" d="M701.2,119.4l-3.3,0.2c-0.1-2.8-1.4-4.3-3.7-4.3h-6.2v6.9h2.5c1,0,1.7-1.2,1.9-3.7h2.9l-0.5,10.4h-2.9
			c-0.2-2.6-0.8-3.9-1.7-3.9h-2.3v8.2h5c3.5,0,5.4-2.1,5.6-6.3l3.4,0.2l-0.8,9.5h-23v-2.7c2,0,3-0.5,3-1.5v-16.2c0-1-1-1.5-3-1.5
			V112h23V119.4z"/>
		<path class="st0" d="M724,132.5c0,1,1,1.5,2.9,1.5v2.7h-7.8l-0.2-2.8c-0.5,1.1-1.4,2-2.5,2.5s-2.5,0.8-3.9,0.8
			c-1.1,0-2.1-0.2-3-0.5s-1.7-0.9-2.4-1.6c-0.7-0.7-1.2-1.7-1.6-2.8c-0.4-1.1-0.6-2.5-0.6-4.2c0-1.7,0.2-3.1,0.6-4.2s1-2.1,1.8-2.8
			c0.8-0.7,1.6-1.2,2.6-1.6c1-0.3,2.1-0.5,3.3-0.5c1,0,1.9,0.1,2.7,0.4c0.8,0.2,1.5,0.6,2,1.1v-5.3c0-1-0.9-1.5-2.8-1.5v-2.7h8.9
			V132.5z M714.7,122c-1.4,0-2.3,0.5-3,1.5c-0.6,1-0.9,2.4-0.9,4.4c0,1.9,0.3,3.4,0.9,4.4c0.6,1,1.6,1.4,3,1.4
			c1.4,0,2.3-0.5,2.9-1.4c0.5-1,0.8-2.4,0.8-4.4c0-1.9-0.3-3.4-0.8-4.4C717.1,122.5,716.1,122,714.7,122z"/>
		<path class="st0" d="M738.3,132.4c0,1,0.9,1.5,2.8,1.5v2.7h-11.7v-2.7c1.9,0,2.8-0.5,2.8-1.5v-8.5c0-1-0.9-1.5-2.8-1.5v-2.7h8.9
			V132.4z M738.6,114.4c0,0.5-0.1,0.9-0.3,1.3c-0.2,0.4-0.4,0.8-0.7,1.1c-0.3,0.3-0.7,0.6-1.1,0.7c-0.4,0.2-0.8,0.3-1.3,0.3
			s-0.9-0.1-1.3-0.3c-0.4-0.2-0.8-0.4-1.1-0.7c-0.3-0.3-0.6-0.7-0.7-1.1c-0.2-0.4-0.3-0.8-0.3-1.3s0.1-0.9,0.3-1.3
			c0.2-0.4,0.4-0.7,0.7-1c0.3-0.3,0.7-0.5,1.1-0.7c0.4-0.2,0.8-0.3,1.3-0.3s0.9,0.1,1.3,0.3c0.4,0.2,0.8,0.4,1.1,0.7
			c0.3,0.3,0.5,0.6,0.7,1C738.5,113.5,738.6,113.9,738.6,114.4z"/>
		<path class="st0" d="M752.6,119.7h4.4l-0.2,2.8c-0.6-0.1-1.3-0.2-2-0.3c-0.7-0.1-1.4-0.1-2.2-0.1v10.6c0,0.5,0.1,0.9,0.3,1.1
			c0.2,0.2,0.5,0.4,1,0.4s0.8-0.1,1-0.4c0.2-0.3,0.3-0.6,0.3-1.1v-1.6h2v1c0,0.7-0.1,1.3-0.2,1.9c-0.2,0.6-0.4,1.1-0.8,1.5
			c-0.4,0.4-0.9,0.7-1.5,0.9s-1.4,0.3-2.3,0.3c-2.1,0-3.5-0.4-4.4-1.3c-0.8-0.9-1.3-2.1-1.3-3.6v-9.8h-2.9v-2c0.6,0,1.2-0.1,1.8-0.3
			c0.6-0.1,1.1-0.4,1.6-0.7c0.5-0.3,0.8-0.8,1.1-1.4c0.3-0.6,0.4-1.4,0.4-2.3v-0.7l4.1-0.2V119.7z"/>
		<path class="st0" d="M778.4,128.1c0,3-0.8,5.3-2.5,6.8c-1.7,1.5-4,2.3-7.1,2.3c-1.2,0-2.4-0.1-3.5-0.4s-2.1-0.7-2.9-1.4
			c-0.8-0.7-1.5-1.5-2-2.7c-0.5-1.1-0.7-2.5-0.7-4.3c0-6.3,3.2-9.4,9.6-9.4c1.3,0,2.5,0.1,3.6,0.4c1.1,0.3,2.1,0.8,3,1.4
			c0.8,0.7,1.5,1.6,2,2.8C778.2,124.9,778.4,126.3,778.4,128.1z M769.1,122c-1.2,0-2.1,0.4-2.6,1.3c-0.6,0.9-0.8,2.3-0.8,4.3
			c0,1.4,0.1,2.5,0.2,3.4c0.1,0.9,0.3,1.6,0.6,2.1c0.3,0.5,0.6,0.8,1,1c0.4,0.2,0.9,0.3,1.5,0.3c1.3,0,2.2-0.5,2.7-1.4
			c0.5-0.9,0.8-2.5,0.8-4.6c0-1.3-0.1-2.3-0.2-3.1c-0.1-0.8-0.4-1.4-0.6-1.9c-0.3-0.5-0.6-0.8-1-1C770.1,122.1,769.6,122,769.1,122z
			"/>
		<path class="st0" d="M789.8,122.8c0.6-1.3,1.3-2.2,2.2-2.8c0.9-0.6,1.9-0.9,2.9-0.9c0.5,0,1.1,0.1,1.6,0.3c0.6,0.2,1,0.4,1.5,0.8
			s0.8,0.8,1.1,1.3c0.3,0.5,0.4,1.1,0.4,1.9c0,1.1-0.3,1.9-0.8,2.6c-0.5,0.7-1.3,1-2.2,1c-0.9,0-1.5-0.2-2-0.7
			c-0.5-0.4-0.7-1-0.7-1.7c0-0.6,0.2-1.1,0.5-1.5c0.3-0.4,0.9-0.7,1.7-0.7c-0.2-0.3-0.5-0.5-0.8-0.7c-0.3-0.1-0.6-0.2-1-0.2
			c-0.4,0-0.9,0.1-1.3,0.4c-0.4,0.3-0.9,0.6-1.3,1.1c-0.4,0.5-0.8,1-1.1,1.6c-0.3,0.6-0.6,1.3-0.7,2v5.8c0,0.5,0.3,0.9,0.9,1.1
			c0.6,0.2,1.4,0.4,2.3,0.4v2.7h-12.1v-2.7c1.9,0,2.8-0.5,2.8-1.5v-8.5c0-1-0.9-1.5-2.8-1.5v-2.7h8.9V122.8z"/>
	</g>
	<g>
		<rect x="10.5" y="94.2" class="st0" width="928.6" height="3"/>
	</g>
</g>
</svg>
